<?xml version="1.0" encoding="UTF-8"?>
<svg id="Camada_1" data-name="Camada 1" xmlns="http://www.w3.org/2000/svg" viewBox="0 0 1920 1080">
  <defs>
    <style>
      .cls-1 {
        fill: #fcebb6;
        stroke-width: 0px;
      }
    </style>
  </defs>
  <path class="cls-1" d="m1920,773.51v306.49H0v-335.79s40.98,7.68,54.47,39.7c13.51,32.02-26.17,134.91,16.67,140.26,46.82,5.88,9.44-99.23,14.4-128.53,4.96-29.32,31.52,19.39,68.45,6.75,36.92-12.62,21.16-68.55,68.87-66.31,47.72,2.27,22.07,60,56.28,99.7,34.22,39.68,58.65,17.2,65.29,44.64,10.8,44.66-30.16,125.39,16.65,124.5,46.83-.91-26.1-159.68,14.42-169.14,42.26-9.89-17.45,131.14,34.2,125.38,44.58-4.95-13.49-121.33,5.87-142.08,19.36-20.74,34.22,12.18,67.98,10.83,33.76-1.34,16.65-74.43,67.99-76.24,51.33-1.78,9.91,117.74,55.38,122.7,37.69,4.11,13.51-68.11,24.31-86.6,4.82-8.24,12.68-12,19.91-13.64,7.23,1.64,15.09,5.4,19.9,13.64,10.8,18.49-13.38,90.71,24.31,86.6,45.47-4.96,4.05-124.48,55.38-122.7,51.34,1.81,34.23,74.9,67.99,76.24,33.76,1.35,48.63-31.57,67.98-10.83,19.36,20.75-38.71,137.13,5.87,142.08,51.65,5.76-8.06-135.27,34.2-125.38,40.52,9.46-32.4,168.23,14.42,169.14,46.81.89,5.85-79.84,16.65-124.5,6.65-27.44,31.07-4.96,65.3-44.64,34.2-39.7,8.55-97.43,56.27-99.7,47.72-2.24,31.96,53.69,68.87,66.31,36.94,12.64,63.49-36.07,68.45-6.75,4.96,29.3-32.42,134.41,14.41,128.53,42.83-5.35,3.15-108.24,16.66-140.26.73-1.72,1.53-3.37,2.4-4.96,12.41-22.48,45.35-21.21,55.75,2.27.12.28.25.57.37.86,13.51,32.02-26.17,134.91,16.67,140.27,46.82,5.87,9.45-99.23,14.4-128.54,4.96-29.32,31.51,19.4,68.45,6.75,36.91-12.62,21.16-68.55,68.87-66.3,47.72,2.27,22.07,60,56.27,99.69,34.23,39.68,58.65,17.2,65.3,44.65,10.8,44.66-30.16,125.39,16.65,124.5,46.82-.91-26.1-159.68,14.42-169.15,42.26-9.88-17.45,131.14,34.2,125.38,44.59-4.94-13.49-121.32,5.87-142.07,19.36-20.75,34.22,12.18,67.98,10.82,33.76-1.34,16.65-74.43,67.99-76.23,51.33-1.78,9.91,117.73,55.38,122.69,37.69,4.12,13.51-68.1,24.31-86.6,10.8-18.48,36.92-14.43,36.92-14.43Z"/>
</svg>