<?xml version="1.0" encoding="UTF-8"?>
<svg id="Camada_2" data-name="Camada 2" xmlns="http://www.w3.org/2000/svg" viewBox="0 0 45 45">
  <defs>
    <style>
      .cls-1 {
        fill: #1d1d1b;
        stroke-width: 0px;
      }
    </style>
  </defs>
  <g id="Camada_1-2" data-name="Camada 1">
    <g>
      <path class="cls-1" d="m28.09,11.13h-11.18c-3.19,0-5.78,2.59-5.78,5.78v11.18c0,3.19,2.59,5.78,5.78,5.78h11.18c3.19,0,5.78-2.59,5.78-5.78v-11.18c0-3.19-2.59-5.78-5.78-5.78Zm-5.47,18.26c-3.8,0-6.9-3.09-6.9-6.9s3.09-6.9,6.9-6.9,6.9,3.09,6.9,6.9-3.09,6.9-6.9,6.9Zm7.3-12.61c-.91,0-1.64-.73-1.64-1.64s.73-1.64,1.64-1.64,1.64.73,1.64,1.64-.73,1.64-1.64,1.64Z"/>
      <path class="cls-1" d="m22.61,18.08c-2.44,0-4.42,1.98-4.42,4.42s1.98,4.42,4.42,4.42,4.42-1.98,4.42-4.42-1.98-4.42-4.42-4.42Z"/>
      <path class="cls-1" d="m22.5,0C10.07,0,0,10.07,0,22.5s10.07,22.5,22.5,22.5,22.5-10.07,22.5-22.5S34.93,0,22.5,0Zm14,28.09c0,4.64-3.77,8.41-8.41,8.41h-11.18c-4.64,0-8.41-3.77-8.41-8.41v-11.18c0-4.64,3.77-8.41,8.41-8.41h11.18c4.64,0,8.41,3.77,8.41,8.41v11.18Z"/>
    </g>
  </g>
</svg>