<?xml version="1.0" encoding="UTF-8"?>
<svg id="Camada_2" data-name="Camada 2" xmlns="http://www.w3.org/2000/svg" viewBox="0 0 45 45">
  <defs>
    <style>
      .cls-1 {
        fill: #1d1d1b;
        stroke-width: 0px;
      }
    </style>
  </defs>
  <g id="Camada_1-2" data-name="Camada 1">
    <path class="cls-1" d="m22.5,0C10.07,0,0,10.07,0,22.5s10.07,22.5,22.5,22.5,22.5-10.07,22.5-22.5S34.93,0,22.5,0Zm11.98,19.83h0c-.23.02-.46.03-.69.04-2.52,0-4.87-1.27-6.25-3.38v11.51c0,4.7-3.81,8.51-8.51,8.51s-8.51-3.81-8.51-8.51,3.81-8.51,8.51-8.51c.18,0,.35.02.53.03v4.19c-.17-.02-.35-.05-.53-.05-2.4,0-4.34,1.94-4.34,4.34s1.94,4.34,4.34,4.34,4.52-1.89,4.52-4.29l.04-19.55h4.01c.38,3.6,3.28,6.41,6.88,6.67v4.66Z"/>
  </g>
</svg>