<?xml version="1.0" encoding="UTF-8"?>
<svg id="Camada_2" data-name="Camada 2" xmlns="http://www.w3.org/2000/svg" viewBox="0 0 45 45">
  <defs>
    <style>
      .cls-1 {
        fill: #1d1d1b;
        stroke-width: 0px;
      }
    </style>
  </defs>
  <g id="Camada_1-2" data-name="Camada 1">
    <g>
      <path class="cls-1" d="m22.64,11.11c-6.18,0-11.22,5.03-11.22,11.22,0,2.04.57,4.05,1.64,5.81l.29.48-1.12,4.18,4.21-1.13.47.28c1.74,1.04,3.72,1.59,5.73,1.59,6.18,0,11.22-5.03,11.22-11.22s-5.03-11.22-11.22-11.22Zm6.59,15.45c-.42,1.01-1.45,1.66-2.51,1.86-1,.19-1.83-.13-2.76-.44-.83-.27-1.63-.67-2.37-1.13-1.49-.91-2.77-2.13-3.81-3.53-.32-.43-.61-.87-.88-1.33-.36-.61-.67-1.25-.84-1.94-.07-.29-.11-.58-.11-.88-.01-1.04.39-2.09,1.21-2.76.48-.39,1.18-.56,1.72-.26.58.33.88,1.16,1.15,1.74.21.45.45,1.05.36,1.56-.09.51-.49.94-.81,1.32-.22.26-.25.47-.07.75,1.07,1.78,2.55,3.07,4.48,3.83.26.11.47.07.64-.14.33-.41.66-1.22,1.18-1.43.67-.27,1.41.11,1.98.45.53.32,1.42.71,1.56,1.36.07.32,0,.65-.12.95Z"/>
      <path class="cls-1" d="m22.5,0C10.07,0,0,10.07,0,22.5s10.07,22.5,22.5,22.5,22.5-10.07,22.5-22.5S34.93,0,22.5,0Zm.14,36.16c-2.29,0-4.55-.58-6.57-1.68l-7.53,2.02,2.01-7.49c-1.14-2.05-1.73-4.35-1.73-6.68,0-7.63,6.2-13.83,13.83-13.83s13.83,6.2,13.83,13.83-6.2,13.83-13.83,13.83Z"/>
    </g>
  </g>
</svg>