<?xml version="1.0" encoding="UTF-8"?>
<svg id="Camada_2" data-name="Camada 2" xmlns="http://www.w3.org/2000/svg" viewBox="0 0 45 45">
  <defs>
    <style>
      .cls-1 {
        fill: #1d1d1b;
        stroke-width: 0px;
      }
    </style>
  </defs>
  <g id="Camada_1-2" data-name="Camada 1">
    <g>
      <path class="cls-1" d="m26.97,22.32l-6.74-3.67c-.28-.16-1.22.04-1.22.36v7.15c0,.31.94.51,1.21.36l7.05-3.49c.29-.15-.01-.56-.29-.73Z"/>
      <path class="cls-1" d="m22.5,0C10.07,0,0,10.07,0,22.5s10.07,22.5,22.5,22.5,22.5-10.07,22.5-22.5S34.93,0,22.5,0Zm14,26.16c0,3.39-2.75,6.14-6.14,6.14h-15.71c-3.39,0-6.14-2.75-6.14-6.14v-7.31c0-3.39,2.75-6.14,6.14-6.14h15.71c3.39,0,6.14,2.75,6.14,6.14v7.31Z"/>
    </g>
  </g>
</svg>