<?xml version="1.0" encoding="UTF-8"?>
<svg id="Camada_2" data-name="Camada 2" xmlns="http://www.w3.org/2000/svg" viewBox="0 0 360 601.33">
  <defs>
    <style>
      .cls-1 {
        fill: #1d1d1b;
        stroke-width: 0px;
      }
    </style>
  </defs>
  <g id="Camada_1-2" data-name="Camada 1">
    <path class="cls-1" d="m360,0v477.85s-14.07-2.18-19.89,7.76c-5.82,9.95,7.21,48.79-13.1,46.58-24.5-2.67-2.18-66.95-29.84-65.99-27.66.97-18.44,40.28-36.63,41-18.19.73-26.2-16.98-36.63-5.82-10.43,11.16,20.86,73.75-3.16,76.41-27.83,3.1,4.34-72.75-18.43-67.43-21.83,5.09,17.46,90.48-7.77,90.97-25.22.48-3.15-42.94-8.97-66.96-3.58-14.76-16.74-2.67-35.18-24.01-18.43-21.35-4.61-52.4-30.32-53.62-25.71-1.21-17.22,28.87-37.11,35.66-19.9,6.8-34.21-19.4-36.88-3.63-2.67,15.76,17.47,72.29-7.76,69.13-23.08-2.88-1.7-58.22-8.98-75.44-7.27-17.22-29.35-21.35-29.35-21.35V0h360Z"/>
  </g>
</svg>