<?xml version="1.0" encoding="UTF-8"?>
<svg id="Camada_2" data-name="Camada 2" xmlns="http://www.w3.org/2000/svg" viewBox="0 0 6067 3175.47">
  <defs>
    <style>
      .cls-1 {
        fill: #1d1d1b;
        stroke-width: 0px;
      }
    </style>
  </defs>
  <g id="Camada_1-2" data-name="Camada 1">
    <g id="Camada_1-2" data-name="Camada 1-2">
      <path class="cls-1" d="m6067,0v2444.22s-82.53-12.82-116.66,45.58c-34.13,58.47,42.29,286.66-76.82,273.67-143.69-15.69-12.79-393.34-175-387.7-162.22,5.69-108.15,236.65-214.83,240.88-106.68,4.29-153.65-99.76-214.82-34.19-61.17,65.57,122.34,433.3-18.53,448.92-163.22,18.21,25.45-427.42-108.09-396.17-128.03,29.91,102.4,531.6-45.56,534.48-147.92,2.82-18.48-252.29-52.61-393.41-21-86.72-98.18-15.69-206.33-141.07-108.08-125.43-27.03-307.86-177.81-315.02-150.78-7.11-101,169.61-217.64,209.51-116.71,39.95-200.63-113.98-216.29-21.33-15.65,92.6,102.46,424.72-45.51,406.15-135.35-16.92-9.97-342.05-52.67-443.22-.39-.92-.78-1.83-1.18-2.73-32.86-74.2-136.93-78.2-176.14-7.16-2.75,5.01-5.3,10.22-7.59,15.66-42.7,101.17,82.69,426.3-52.66,443.22-147.97,18.57-29.86-313.56-45.52-406.16-15.66-92.64-99.58,61.29-216.28,21.33-116.66-39.88-66.86-216.61-217.65-209.51-150.77,7.17-69.73,189.59-177.81,315.03-108.14,125.38-185.32,54.35-206.32,141.07-34.13,141.12,95.3,396.22-52.61,393.4-147.96-2.87,82.46-504.57-45.56-534.47-133.55-31.25,55.13,414.38-108.09,396.17-140.87-15.63,42.64-383.36-18.54-448.93-61.16-65.56-108.13,38.49-214.81,34.2-106.68-4.24-52.61-235.19-214.83-240.89-162.21-5.64-31.32,372.03-175,387.71-119.11,12.99-42.69-215.21-76.82-273.66-15.21-26.03-40.05-37.92-62.9-43.09-22.84,5.17-47.68,17.06-62.89,43.09-34.13,58.45,42.28,286.65-76.83,273.66-143.68-15.68-12.78-393.35-175-387.71-162.21,5.7-108.14,236.65-214.82,240.89-106.68,4.29-153.65-99.76-214.83-34.2-61.16,65.57,122.34,433.3-18.53,448.93-163.21,18.21,25.45-427.42-108.08-396.17-128.03,29.9,102.4,531.6-45.57,534.47-147.9,2.82-18.48-252.28-52.61-393.4-20.99-86.72-98.17-15.69-206.32-141.07-108.08-125.44-27.03-307.86-177.82-315.03-150.77-7.1-100.98,169.63-217.63,209.51-116.7,39.96-200.63-113.97-216.29-21.33-15.66,92.6,102.45,424.73-45.51,406.16-135.36-16.92-9.97-342.05-52.67-443.22-42.64-101.18-172.12-125.44-172.12-125.44V0h6067Z"/>
    </g>
  </g>
</svg>