<?xml version="1.0" encoding="UTF-8"?>
<svg xmlns="http://www.w3.org/2000/svg" xmlns:xlink="http://www.w3.org/1999/xlink" viewBox="0 0 477.88 475.32">
  <defs>
    <style>
      .cls-1, .cls-2, .cls-3 {
        stroke-width: 0px;
      }

      .cls-1, .cls-3 {
        fill: #5e412f;
      }

      .cls-4 {
        isolation: isolate;
      }

      .cls-2 {
        fill: none;
      }

      .cls-3 {
        mix-blend-mode: multiply;
        opacity: .5;
      }

      .cls-5 {
        clip-path: url(#clippath);
      }
    </style>
    <clipPath id="clippath">
      <path class="cls-2" d="m241.31,5.69C111.63,5.69,6.5,110.82,6.5,240.5s105.13,234.81,234.81,234.81,234.81-105.13,234.81-234.81S371,5.69,241.31,5.69Zm-139.77,125.65c-5.01,6.4-9.61,13.2-13.69,20.22-.93,1.6-2.6,2.49-4.33,2.49-.85,0-1.72-.22-2.51-.68-2.39-1.39-3.2-4.45-1.81-6.83,4.3-7.41,9.17-14.59,14.46-21.35,1.7-2.17,4.84-2.56,7.02-.86,2.17,1.7,2.56,4.84.86,7.02Zm11.96-15.89c-1.29,0-2.59-.5-3.57-1.5-1.94-1.97-1.91-5.13.06-7.07,32.76-32.2,76.01-51.19,121.78-53.48,2.76-.12,5.11,1.99,5.24,4.74.14,2.76-1.99,5.11-4.74,5.24-43.33,2.17-84.26,20.15-115.27,50.63-.97.96-2.24,1.43-3.5,1.43Zm127.81,204.33c-43.78,0-79.27-35.49-79.27-79.27s35.49-79.27,79.27-79.27,79.27,35.49,79.27,79.27-35.49,79.27-79.27,79.27Z"/>
    </clipPath>
  </defs>
  <g class="cls-4">
    <g id="Camada_2" data-name="Camada 2">
      <g id="Camada_1-2" data-name="Camada 1">
        <g>
          <path class="cls-1" d="m241.31,5.69C111.63,5.69,6.5,110.82,6.5,240.5s105.13,234.81,234.81,234.81,234.81-105.13,234.81-234.81S371,5.69,241.31,5.69Zm-139.77,125.65c-5.01,6.4-9.61,13.2-13.69,20.22-.93,1.6-2.6,2.49-4.33,2.49-.85,0-1.72-.22-2.51-.68-2.39-1.39-3.2-4.45-1.81-6.83,4.3-7.41,9.17-14.59,14.46-21.35,1.7-2.17,4.84-2.56,7.02-.86,2.17,1.7,2.56,4.84.86,7.02Zm11.96-15.89c-1.29,0-2.59-.5-3.57-1.5-1.94-1.97-1.91-5.13.06-7.07,32.76-32.2,76.01-51.19,121.78-53.48,2.76-.12,5.11,1.99,5.24,4.74.14,2.76-1.99,5.11-4.74,5.24-43.33,2.17-84.26,20.15-115.27,50.63-.97.96-2.24,1.43-3.5,1.43Zm127.81,204.33c-43.78,0-79.27-35.49-79.27-79.27s35.49-79.27,79.27-79.27,79.27,35.49,79.27,79.27-35.49,79.27-79.27,79.27Z"/>
          <g class="cls-5">
            <path class="cls-3" d="m0,237.04c5.61,33.13,15.92,74.73,35.04,76.52,30.98,2.89,53.38-101.72,92.2-101.5,49.88.28,74.23,173.31,112.49,171.77,35.14-1.41,48.9-148.71,81.14-148.35,22.51.26,25.6,72.19,62.7,79.64,23.01,4.62,50.21-17.35,74.3-44.37,17.37-19.48,23.98-46.3,17.66-71.62l-7.23-28.97C445.44,78.52,367.14,11.17,273.07,2.75c-10.02-.9-20.32-1.67-30.88-2.28C135.76-5.72,21.68,48.56,0,237.04Z"/>
          </g>
        </g>
      </g>
    </g>
  </g>
</svg>