<?xml version="1.0" encoding="UTF-8"?>
<svg id="Camada_2" data-name="Camada 2" xmlns="http://www.w3.org/2000/svg" viewBox="0 0 45 45">
  <defs>
    <style>
      .cls-1 {
        fill: #1d1d1b;
        stroke-width: 0px;
      }
    </style>
  </defs>
  <g id="Camada_1-2" data-name="Camada 1">
    <g>
      <path class="cls-1" d="m18.58,24.45c-.18-.21-.39-.38-.64-.51-.25-.12-.52-.18-.81-.18h-5.22v4.61h5.05c.31,0,.6-.06.87-.17.27-.11.51-.27.7-.48.2-.21.35-.45.47-.73.11-.28.17-.57.17-.89s-.05-.61-.16-.9c-.11-.29-.25-.54-.43-.75Z"/>
      <path class="cls-1" d="m17.9,20.48c.4-.39.6-.94.6-1.63s-.18-1.21-.55-1.6c-.37-.39-.83-.59-1.37-.59h-4.68v4.41h4.53c.57,0,1.06-.2,1.47-.59Z"/>
      <path class="cls-1" d="m32.17,21.45c-.61-.56-1.36-.85-2.23-.85-.43,0-.83.08-1.21.23-.37.15-.7.36-.99.63-.29.27-.52.6-.7.98-.18.38-.29.8-.32,1.27h6.49c-.08-.94-.43-1.69-1.04-2.26Z"/>
      <path class="cls-1" d="m22.5,0C10.07,0,0,10.07,0,22.5s10.07,22.5,22.5,22.5,22.5-10.07,22.5-22.5S34.93,0,22.5,0Zm3.25,14.58h8.37v2.08h-8.37v-2.08Zm-3.6,14.1c-.3.56-.7,1.03-1.22,1.4-.52.38-1.12.67-1.8.86-.68.2-1.41.3-2.18.3h-8.45V13.75h9.36c.61,0,1.16.13,1.65.39.49.26.91.6,1.26,1.02.35.42.61.9.8,1.43.19.53.28,1.07.28,1.61,0,.85-.21,1.66-.64,2.4-.43.75-1.05,1.3-1.87,1.66,1,.3,1.79.83,2.38,1.59.58.76.87,1.72.87,2.87,0,.74-.15,1.39-.44,1.95Zm14.28-2.91h-9.67c.05.49.17.93.36,1.31.19.38.44.71.74.98.3.27.64.48,1.03.62.38.14.78.22,1.19.22.64,0,1.24-.16,1.8-.47.57-.31.95-.72,1.16-1.23l2.75.76c-.46.96-1.2,1.74-2.21,2.35-1.01.61-2.22.92-3.62.92-1,0-1.91-.17-2.72-.51-1.61-.68-2.74-1.83-3.4-3.45-.31-.78-.47-1.6-.47-2.46s.15-1.73.45-2.52c.65-1.64,1.78-2.8,3.4-3.5.82-.35,1.74-.53,2.76-.53s1.93.18,2.73.53c2.64,1.15,3.89,3.71,3.77,6.49,0,.19-.03.35-.06.48Z"/>
    </g>
  </g>
</svg>