<?xml version="1.0" encoding="UTF-8"?>
<svg id="Camada_2" data-name="Camada 2" xmlns="http://www.w3.org/2000/svg" viewBox="0 0 45 45">
  <defs>
    <style>
      .cls-1 {
        fill: #1d1d1b;
        stroke-width: 0px;
      }
    </style>
  </defs>
  <g id="Camada_1-2" data-name="Camada 1">
    <g>
      <path class="cls-1" d="m10.35,16.1s0,0,0,0v12.78c0,.15.04.28.1.4l6.54-6.54-6.64-6.64Z"/>
      <path class="cls-1" d="m22.5,0C10.07,0,0,10.07,0,22.5s10.07,22.5,22.5,22.5,22.5-10.07,22.5-22.5S34.93,0,22.5,0Zm14,28.89c0,1.53-1.25,2.78-2.78,2.78H11.28c-1.53,0-2.78-1.25-2.78-2.78v-12.78c0-1.53,1.25-2.78,2.78-2.78h22.45c1.53,0,2.78,1.25,2.78,2.78v12.78Z"/>
      <path class="cls-1" d="m24.09,26.65c-.43.43-.99.66-1.59.66s-1.17-.23-1.59-.66l-2.6-2.6-5.76,5.76h19.91l-5.76-5.76-2.6,2.6Z"/>
      <path class="cls-1" d="m22.79,25.35l10.16-10.16H12.06l10.16,10.16c.15.15.42.15.57,0Z"/>
      <path class="cls-1" d="m28,22.75l6.54,6.54c.06-.12.1-.26.1-.4v-12.78s0,0,0-.01l-6.64,6.64Z"/>
    </g>
  </g>
</svg>