<?xml version="1.0" encoding="UTF-8"?>
<svg id="_Ñëîé_1" data-name="Ñëîé 1" xmlns="http://www.w3.org/2000/svg" viewBox="0 0 95 95">
  <defs>
    <style>
      .cls-1 {
        fill: #fcebb6;
      }
    </style>
  </defs>
  <g>
    <path class="cls-1" d="m69.77,63.19c0,.06-.01.12-.02.19,0,0,.01,0,.02,0v-.19Z"/>
    <path class="cls-1" d="m60.16,58.1c0,.06,0,.13,0,.19,0,0,0,0,0,0v-.19Z"/>
    <path class="cls-1" d="m48.76,27.44c1.99,1.4,4.23.13,6-1.07.75-.43,1.71-.23,2.62-.46-.07-.42-.12-.85-.14-1.3-.16-3.16,1.14-3.54.83-6.22-.38-3.38-2.57-3.91-2.78-6.94-.22-3.26,2.22-4.19,1.8-6.05-.82-3.6-11.15-5.19-20.31-3.15-.93.21-.07.07-11.04,4.5-6.96,2.81-7.65,3.03-8.96,4.14-2.85,2.42-4.25,5.6-6.63,11.58,1.05.09,1.72-.7,2.72-1.2.11.74-.23,1.73.27,1.84.74.64,1.83.29,2.72-.21l.41,2.76c.92-.32,1.93-.1,2.8-.79.29.9-.15,2.28.38,2.58.72.46,1.77-.07,2.72-.21-.18.97,0,2.25.41,2.76,1.17,1.33,2.91-.05,4.07-.98.14.92-.31,2.3.38,2.58,1.03.41,2.09-.12,3.01-.45-.55.65-.29,1.36.06,1.5,1.03.41,2.83.52,3.25-1.04.24.53-.13,1.33.09,1.68.54.35,1.1.15,1.6-.08,1.63-1.6,3.68-2.69,6-3.03,1.64-.24,3.26-.09,4.79.4,1.19-.71,2.47-1.66,2.92-3.11Z"/>
    <path class="cls-1" d="m88.34,51.36c-.11-1.77-2.78,1.45-5.73-1.1-1.91-1.65-.8-4.01-2.69-5.57-2.01-1.65-4.1.51-7.49-.77-3.71-1.4-5.34-5.54-5.88-6.93-.37-.94-1.17-3-1.02-5.52-1.11.01-2.15-.42-3.12-.18-2.33.76-5.23,1.46-7.16-.4-.88,1.32-2.59,1.94-4.13,2.35,4.89,2.55,8.03,7.86,7.56,13.7-.19,2.32-.93,4.46-2.08,6.31.61,1.27,2.39,1.85,3.93,1.7,0-.06.01-.13.02-.19l-.02.19s0,0,0,0c-.08.71-.26,1.51.24,1.72,2.34,1.52,2.43.39,3.54,2.94.8,1.76,3.5.86,5.37,1.19.01-.06.02-.12.04-.18l-.02.19s-.01,0-.02,0c-.21,1.24.24,2.51,1.09,3.12.71.63,2.4.76,3.59.1,1.15,2.87,3.78,5.15,6.83,6,.91-1.85,2-4.28,3.9-7.61,3.96-6.97,3.38-9.19,3.26-11.06Z"/>
    <path class="cls-1" d="m74.67,66.21c-1.13.75-2.83.75-3.58.19-.9-.54-1.45-1.76-1.34-3.02-1.88-.18-4.51.94-5.45-.75-1.32-2.45-1.32-1.32-3.77-2.64-.52-.17-.4-.98-.38-1.7-1.52.28-3.34-.16-4.06-1.38-2.35,4.57-7.1,7.69-12.59,7.69-7.82,0-14.15-6.34-14.15-14.15,0-5.06,2.66-9.5,6.65-12-.62.16-1.3.27-1.87-.16-.19-.38.38-1.13.19-1.7-.75,1.51-2.83,1.13-3.96.57-.38-.19-.57-.94.19-1.51-1.13.19-2.45.57-3.58,0-.75-.38,0-1.7,0-2.64-1.51.75-3.77,1.89-4.9.38-.38-.57-.38-1.89,0-2.83-1.13,0-2.45.38-3.21-.19-.57-.38.19-1.7,0-2.64-1.13.57-2.26.19-3.39.38v-2.83c-1.13.38-2.45.57-3.21-.19-.57-.19,0-1.13,0-1.89-1.25.36-2.16,1.05-3.37.8-.31.46-.63.94-.97,1.44-3.83,5.73-5.75,8.59-6.74,12.86-.35,1.49-.27,1.73-.77,12.29C0,59.52-.09,59.84.09,61.22c.83,6.33,3.99,10.82,5.8,13.33,4.85,6.72,10.77,9.91,15.37,12.39,4.59,2.47,11.88,6.29,22.09,6.61,2.72.08,15.78.24,27.46-8.49,1.92-1.44,6.18-4.68,9.72-10.35.53-.84.96-1.83,1.44-3.07-3.11-.6-5.92-2.65-7.3-5.42Z"/>
  </g>
  <g>
    <path class="cls-1" d="m19.48,26.4c-.09-.03-.19-.18-.22-.68-.34.06-.66.25-.87.53-.03.04-.05.07-.05.12,0,.1.09.17.15.24.22.28.06.78.36.97.27-.25.51-.54.71-.86.04-.09.08-.2.03-.27-.03-.04-.08-.05-.11-.06Z"/>
    <path class="cls-1" d="m19.02,33.3c0,.13.1.25.23.27.22.04.41-.26.3-.45-.14-.25-.53-.09-.53.18Z"/>
    <path class="cls-1" d="m23.37,37.39c-.19.1-.38.22-.54.36-.05.04-.1.09-.1.16-.01.1.08.18.16.23.09.06.18.1.28.14.03.01.07.03.11.02.03,0,.06-.02.09-.04.09-.05.17-.11.26-.16.26-.16.02-.24-.06-.4-.05-.1.01-.41-.19-.31Z"/>
    <path class="cls-1" d="m24.72,30.8s-.08-.07-.13-.08c-.13-.04-.27.06-.36.16-.18.2-.3.46-.35.72,0,.04-.01.07,0,.11.02.07.08.13.13.18.13.13.18.33.14.51-.02.07-.04.14-.02.21.04.12.19.15.31.14.19-.01.39-.08.51-.23.09-.12.12-.27.15-.41.03-.16.06-.31.1-.47.03-.17.06-.31-.05-.45-.12-.15-.29-.28-.43-.41Z"/>
    <path class="cls-1" d="m20.31,30.3c-.04-.08-.1-.12-.18-.16-.04-.02-.08-.05-.13-.08-.09-.05-.17-.11-.25-.17-.08-.06-.16-.12-.23-.18-.03-.03-.07-.05-.1-.07,0,0,0,0,0,0-.03-.04-.07-.06-.11-.07-.07-.03-.14,0-.2.04-.08.06-.09.16-.07.25.02.07.06.13.11.18.08.09.18.17.28.25.08.07.17.13.26.2.11.07.25.2.38.19.09,0,.18-.04.23-.12.05-.07.06-.18.01-.26Z"/>
    <path class="cls-1" d="m26.37,35.1c-.02-.07-.07-.13-.14-.15-.12-.04-.23-.02-.35,0-.09.01-.18.05-.27.07-.2.06-.39.14-.57.22-.14.06-.2.25-.13.39.08.14.24.2.39.13.21-.1.43-.18.65-.26.13-.04.27-.09.37-.19.05-.05.08-.12.07-.2Z"/>
  </g>
  <g>
    <path class="cls-1" d="m60.24,56.23c-.09-.03-.19-.18-.22-.68-.34.06-.66.25-.87.53-.03.04-.05.07-.05.12,0,.1.09.17.15.24.22.28.06.78.36.97.27-.25.51-.54.71-.86.04-.09.08-.2.03-.27-.03-.04-.08-.05-.11-.06Z"/>
    <path class="cls-1" d="m59.78,63.12c0,.13.1.25.23.27.22.04.41-.26.3-.45-.14-.25-.53-.09-.53.18Z"/>
    <path class="cls-1" d="m64.14,67.22c-.19.1-.38.22-.54.36-.05.04-.1.09-.1.16-.01.1.08.18.16.23.09.06.18.1.28.14.03.01.07.03.11.02.03,0,.06-.02.09-.04.09-.05.17-.11.26-.16.26-.16.02-.24-.06-.4-.05-.1.01-.41-.19-.31Z"/>
    <path class="cls-1" d="m65.49,60.63s-.08-.07-.13-.08c-.13-.04-.27.06-.36.16-.18.2-.3.46-.35.72,0,.04-.01.07,0,.11.02.07.08.13.13.18.13.13.18.33.14.51-.02.07-.04.14-.02.21.04.12.19.15.31.14.19-.01.39-.08.51-.23.09-.12.12-.27.15-.41.03-.16.06-.31.1-.47.03-.17.06-.31-.05-.45-.12-.15-.29-.28-.43-.41Z"/>
    <path class="cls-1" d="m61.07,60.13c-.04-.08-.1-.12-.18-.16-.04-.02-.08-.05-.13-.08-.09-.05-.17-.11-.25-.17-.08-.06-.16-.12-.23-.18-.03-.03-.07-.05-.1-.07,0,0,0,0,0,0-.03-.04-.07-.06-.11-.07-.07-.03-.14,0-.2.04-.08.06-.09.16-.07.25.02.07.06.13.11.18.08.09.18.17.28.25.08.07.17.13.26.2.11.07.25.2.38.19.09,0,.18-.04.23-.12.05-.07.06-.18.01-.26Z"/>
    <path class="cls-1" d="m67.14,64.93c-.02-.07-.07-.13-.14-.15-.12-.04-.23-.02-.35,0-.09.01-.18.05-.27.07-.2.06-.39.14-.57.22-.14.06-.2.25-.13.39.08.14.24.2.39.13.21-.1.43-.18.65-.26.13-.04.27-.09.37-.19.05-.05.08-.12.07-.2Z"/>
  </g>
  <g>
    <path class="cls-1" d="m60.24,10.57c-.09-.03-.19-.18-.22-.68-.34.06-.66.25-.87.53-.03.04-.05.07-.05.12,0,.1.09.17.15.24.22.28.06.78.36.97.27-.25.51-.54.71-.86.04-.09.08-.2.03-.27-.03-.04-.08-.05-.11-.06Z"/>
    <path class="cls-1" d="m59.78,17.47c0,.13.1.25.23.27.22.04.41-.26.3-.45-.14-.25-.53-.09-.53.18Z"/>
    <path class="cls-1" d="m64.14,21.56c-.19.1-.38.22-.54.36-.05.04-.1.09-.1.16-.01.1.08.18.16.23.09.06.18.1.28.14.03.01.07.03.11.02.03,0,.06-.02.09-.04.09-.05.17-.11.26-.16.26-.16.02-.24-.06-.4-.05-.1.01-.41-.19-.31Z"/>
    <path class="cls-1" d="m65.49,14.97s-.08-.07-.13-.08c-.13-.04-.27.06-.36.16-.18.2-.3.46-.35.72,0,.04-.01.07,0,.11.02.07.08.13.13.18.13.13.18.33.14.51-.02.07-.04.14-.02.21.04.12.19.15.31.14.19-.01.39-.08.51-.23.09-.12.12-.27.15-.41.03-.16.06-.31.1-.47.03-.17.06-.31-.05-.45-.12-.15-.29-.28-.43-.41Z"/>
    <path class="cls-1" d="m61.07,14.47c-.04-.08-.1-.12-.18-.16-.04-.02-.08-.05-.13-.08-.09-.05-.17-.11-.25-.17-.08-.06-.16-.12-.23-.18-.03-.03-.07-.05-.1-.07,0,0,0,0,0,0-.03-.04-.07-.06-.11-.07-.07-.03-.14,0-.2.04-.08.06-.09.16-.07.25.02.07.06.13.11.18.08.09.18.17.28.25.08.07.17.13.26.2.11.07.25.2.38.19.09,0,.18-.04.23-.12.05-.07.06-.18.01-.26Z"/>
    <path class="cls-1" d="m67.14,19.27c-.02-.07-.07-.13-.14-.15-.12-.04-.23-.02-.35,0-.09.01-.18.05-.27.07-.2.06-.39.14-.57.22-.14.06-.2.25-.13.39.08.14.24.2.39.13.21-.1.43-.18.65-.26.13-.04.27-.09.37-.19.05-.05.08-.12.07-.2Z"/>
  </g>
  <g>
    <path class="cls-1" d="m66.89,23.65c-.09-.03-.19-.18-.22-.68-.34.06-.66.25-.87.53-.03.04-.05.07-.05.12,0,.1.09.17.15.24.22.28.06.78.36.97.27-.25.51-.54.71-.86.04-.09.08-.2.03-.27-.03-.04-.08-.05-.11-.06Z"/>
    <path class="cls-1" d="m66.43,30.55c0,.13.1.25.23.27.22.04.41-.26.3-.45-.14-.25-.53-.09-.53.18Z"/>
    <path class="cls-1" d="m70.78,34.64c-.19.1-.38.22-.54.36-.05.04-.1.09-.1.16-.01.1.08.18.16.23.09.06.18.1.28.14.03.01.07.03.11.02.03,0,.06-.02.09-.04.09-.05.17-.11.26-.16.26-.16.02-.24-.06-.4-.05-.1.01-.41-.19-.31Z"/>
    <path class="cls-1" d="m72.14,28.05s-.08-.07-.13-.08c-.13-.04-.27.06-.36.16-.18.2-.3.46-.35.72,0,.04-.01.07,0,.11.02.07.08.13.13.18.13.13.18.33.14.51-.02.07-.04.14-.02.21.04.12.19.15.31.14.19-.01.39-.08.51-.23.09-.12.12-.27.15-.41.03-.16.06-.31.1-.47.03-.17.06-.31-.05-.45-.12-.15-.29-.28-.43-.41Z"/>
    <path class="cls-1" d="m67.72,27.55c-.04-.08-.1-.12-.18-.16-.04-.02-.08-.05-.13-.08-.09-.05-.17-.11-.25-.17-.08-.06-.16-.12-.23-.18-.03-.03-.07-.05-.1-.07,0,0,0,0,0,0-.03-.04-.07-.06-.11-.07-.07-.03-.14,0-.2.04-.08.06-.09.16-.07.25.02.07.06.13.11.18.08.09.18.17.28.25.08.07.17.13.26.2.11.07.25.2.38.19.09,0,.18-.04.23-.12.05-.07.06-.18.01-.26Z"/>
    <path class="cls-1" d="m73.79,32.35c-.02-.07-.07-.13-.14-.15-.12-.04-.23-.02-.35,0-.09.01-.18.05-.27.07-.2.06-.39.14-.57.22-.14.06-.2.25-.13.39.08.14.24.2.39.13.21-.1.43-.18.65-.26.13-.04.27-.09.37-.19.05-.05.08-.12.07-.2Z"/>
  </g>
  <g>
    <path class="cls-1" d="m71.78,17.84c-.09-.03-.19-.18-.22-.68-.34.06-.66.25-.87.53-.03.04-.05.07-.05.12,0,.1.09.17.15.24.22.28.06.78.36.97.27-.25.51-.54.71-.86.04-.09.08-.2.03-.27-.03-.04-.08-.05-.11-.06Z"/>
    <path class="cls-1" d="m71.32,24.74c0,.13.1.25.23.27.22.04.41-.26.3-.45-.14-.25-.53-.09-.53.18Z"/>
    <path class="cls-1" d="m75.68,28.83c-.19.1-.38.22-.54.36-.05.04-.1.09-.1.16-.01.1.08.18.16.23.09.06.18.1.28.14.03.01.07.03.11.02.03,0,.06-.02.09-.04.09-.05.17-.11.26-.16.26-.16.02-.24-.06-.4-.05-.1.01-.41-.19-.31Z"/>
    <path class="cls-1" d="m77.03,22.24s-.08-.07-.13-.08c-.13-.04-.27.06-.36.16-.18.2-.3.46-.35.72,0,.04-.01.07,0,.11.02.07.08.13.13.18.13.13.18.33.14.51-.02.07-.04.14-.02.21.04.12.19.15.31.14.19-.01.39-.08.51-.23.09-.12.12-.27.15-.41.03-.16.06-.31.1-.47.03-.17.06-.31-.05-.45-.12-.15-.29-.28-.43-.41Z"/>
    <path class="cls-1" d="m72.62,21.74c-.04-.08-.1-.12-.18-.16-.04-.02-.08-.05-.13-.08-.09-.05-.17-.11-.25-.17-.08-.06-.16-.12-.23-.18-.03-.03-.07-.05-.1-.07,0,0,0,0,0,0-.03-.04-.07-.06-.11-.07-.07-.03-.14,0-.2.04-.08.06-.09.16-.07.25.02.07.06.13.11.18.08.09.18.17.28.25.08.07.17.13.26.2.11.07.25.2.38.19.09,0,.18-.04.23-.12.05-.07.06-.18.01-.26Z"/>
    <path class="cls-1" d="m78.68,26.54c-.02-.07-.07-.13-.14-.15-.12-.04-.23-.02-.35,0-.09.01-.18.05-.27.07-.2.06-.39.14-.57.22-.14.06-.2.25-.13.39.08.14.24.2.39.13.21-.1.43-.18.65-.26.13-.04.27-.09.37-.19.05-.05.08-.12.07-.2Z"/>
  </g>
  <g>
    <path class="cls-1" d="m82.5,27.61c.1,0,.23-.13.37-.61.32.14.58.4.72.72.02.04.03.08.03.13-.01.1-.12.14-.2.2-.28.22-.24.75-.57.86-.21-.31-.37-.64-.49-1-.02-.1-.03-.22.03-.27.04-.03.09-.03.12-.03Z"/>
    <path class="cls-1" d="m81.35,34.43c-.03.12-.16.22-.29.21-.23-.01-.34-.34-.19-.51.2-.21.54.04.47.29Z"/>
    <path class="cls-1" d="m76.16,37.4c.17.14.32.3.44.48.04.05.07.11.07.18-.01.1-.11.15-.21.18-.1.03-.2.06-.31.07-.04,0-.08,0-.11,0-.03-.01-.05-.03-.07-.06-.07-.07-.14-.14-.21-.21-.22-.21.04-.23.15-.37.07-.08.09-.4.25-.26Z"/>
    <path class="cls-1" d="m76.38,30.67s.09-.05.14-.05c.14-.01.25.12.31.24.13.24.19.52.18.79,0,.04,0,.07-.02.11-.03.07-.11.1-.17.14-.15.1-.25.28-.26.47,0,.07.01.15-.03.21-.06.11-.22.1-.34.06-.18-.06-.37-.17-.45-.34-.06-.13-.06-.29-.05-.44,0-.16.01-.32.02-.48,0-.17.01-.32.15-.42.15-.11.34-.21.51-.3Z"/>
    <path class="cls-1" d="m80.79,31.21c.06-.07.13-.09.21-.12.05-.01.09-.03.14-.04.1-.03.19-.07.28-.11.09-.04.18-.08.27-.12.04-.02.08-.03.11-.05,0,0,0,0,0,0,.04-.03.08-.04.13-.05.07-.01.14.03.18.09.06.08.05.18.01.26-.03.07-.09.11-.15.15-.1.07-.22.12-.33.18-.1.05-.2.09-.3.13-.12.05-.29.13-.42.1-.09-.02-.16-.08-.2-.17-.03-.08-.01-.19.05-.25Z"/>
    <path class="cls-1" d="m73.77,34.47c.03-.07.1-.11.17-.12.12-.01.23.03.34.08.09.03.17.09.25.13.18.1.34.22.5.35.12.09.14.29.04.41-.11.12-.28.14-.41.04-.18-.14-.37-.28-.57-.4-.11-.07-.24-.15-.31-.27-.04-.07-.05-.14-.02-.21Z"/>
  </g>
  <g>
    <path class="cls-1" d="m79.09,30.92c-.09-.03-.19-.18-.22-.68-.34.06-.66.25-.87.53-.03.04-.05.07-.05.12,0,.1.09.17.15.24.22.28.06.78.36.97.27-.25.51-.54.71-.86.04-.09.08-.2.03-.27-.03-.04-.08-.05-.11-.06Z"/>
    <path class="cls-1" d="m78.63,37.82c0,.13.1.25.23.27.22.04.41-.26.3-.45-.14-.25-.53-.09-.53.18Z"/>
    <path class="cls-1" d="m82.99,41.91c-.19.1-.38.22-.54.36-.05.04-.1.09-.1.16-.01.1.08.18.16.23.09.06.18.1.28.14.03.01.07.03.11.02.03,0,.06-.02.09-.04.09-.05.17-.11.26-.16.26-.16.02-.24-.06-.4-.05-.1.01-.41-.19-.31Z"/>
    <path class="cls-1" d="m84.34,35.32s-.08-.07-.13-.08c-.13-.04-.27.06-.36.16-.18.2-.3.46-.35.72,0,.04-.01.07,0,.11.02.07.08.13.13.18.13.13.18.33.14.51-.02.07-.04.14-.02.21.04.12.19.15.31.14.19-.01.39-.08.51-.23.09-.12.12-.27.15-.41.03-.16.06-.31.1-.47.03-.17.06-.31-.05-.45-.12-.15-.29-.28-.43-.41Z"/>
    <path class="cls-1" d="m79.92,34.82c-.04-.08-.1-.12-.18-.16-.04-.02-.08-.05-.13-.08-.09-.05-.17-.11-.25-.17-.08-.06-.16-.12-.23-.18-.03-.03-.07-.05-.1-.07,0,0,0,0,0,0-.03-.04-.07-.06-.11-.07-.07-.03-.14,0-.2.04-.08.06-.09.16-.07.25.02.07.06.13.11.18.08.09.18.17.28.25.08.07.17.13.26.2.11.07.25.2.38.19.09,0,.18-.04.23-.12.05-.07.06-.18.01-.26Z"/>
    <path class="cls-1" d="m85.99,39.62c-.02-.07-.07-.13-.14-.15-.12-.04-.23-.02-.35,0-.09.01-.18.05-.27.07-.2.06-.39.14-.57.22-.14.06-.2.25-.13.39.08.14.24.2.39.13.21-.1.43-.18.65-.26.13-.04.27-.09.37-.19.05-.05.08-.12.07-.2Z"/>
  </g>
</svg>