<?xml version="1.0" encoding="UTF-8"?>
<svg id="_Ñëîé_1" data-name="Ñëîé 1" xmlns="http://www.w3.org/2000/svg" viewBox="0 0 95 95">
  <defs>
    <style>
      .cls-1 {
        fill: #fcebb6;
      }
    </style>
  </defs>
  <g>
    <path class="cls-1" d="m69.77,60.07c0,.06-.01.12-.02.19,0,0,.01,0,.02,0v-.19Z"/>
    <path class="cls-1" d="m60.16,54.98c0,.06,0,.13,0,.19,0,0,0,0,0,0v-.19Z"/>
    <path class="cls-1" d="m28.87,65.84c-.06-.16-.13-.33-.21-.49,0,.23.09.38.21.49Z"/>
    <path class="cls-1" d="m23.38,69.31c-.07.4-.04.74.04,1.03.04-.35.02-.69-.04-1.03Z"/>
    <path class="cls-1" d="m15.65,75.91c.17.37.45.72.81,1.02.02-.55-.18-1.02-.81-1.02Z"/>
    <path class="cls-1" d="m51.62,83.36c-1.44-.97-3.83-.31-4.78-1.91-.92-1.41,2.49-1.43,2.88-2.99-1.38-.41-2.38-.86-3.09-2.11-.57-1.64-.18-3.21.79-4.65l.75-.09c-1.15-1.76-4.42-2.14-3.38-4.54.27-.98,1.53-1.51,2.01-2.32-.94.11-1.59-.58-2-.91-1.07-1.01.4-3.08,1.83-3.82-.96-.08-1.54-.2-1.84-1.12-.11-.33-.23-.68-.33-1.05-.37.07-.75.13-1.13.18-1.74.2-3.43.08-5.03-.32.21,1.14.07,2.19-.68,2.97-1.32,1.67-2.9-2.13-5.07-2.83-.1.77-1.12.13-1.35-.22-.06,1.14.49,2.59-.72,3.49.25.98.23,1.96-.24,2.88-.12.15-.61.24-.92.03,1.02,2.04.36,4.48-1.25,5.73-1.16.76-3.07.7-3.64-.63.02,1.59-1.03,3.22-2.89,3.28,1.35.22.7,2.77.6,3.54-.41,1.53-2.52,1.41-3.87.52.05.61-.16,1.35-.43,1.68-.46.52-.98.91-1.53,1.21,2.68,1.46,5.26,2.49,7.53,3.39,4.85,1.93,12.53,4.88,22.7,4.02.42-.04,1.09-.1,1.95-.22-.6-1.37,1.53-2.7,3.15-3.22Z"/>
    <path class="cls-1" d="m30.36,63.09s0,0,.01,0c-.04-.31-.11-.62-.2-.94-.38.38.19.57.19.94Z"/>
  </g>
  <g>
    <path class="cls-1" d="m12.94,74.09c-.01.05-.08.12-.36.18.06.19.19.35.37.44.02.01.04.02.07.02.06,0,.09-.06.12-.1.14-.15.43-.09.52-.28-.16-.13-.34-.24-.53-.33-.05-.02-.12-.03-.16,0-.02.02-.02.05-.02.06Z"/>
    <path class="cls-1" d="m16.82,73.81c.07-.01.13-.08.13-.15,0-.13-.17-.21-.27-.13-.13.1,0,.3.14.28Z"/>
    <path class="cls-1" d="m18.76,71.06c.07.1.15.19.25.27.03.02.06.05.09.05.06,0,.09-.06.11-.11.02-.05.04-.11.05-.17,0-.02,0-.04,0-.06,0-.02-.02-.03-.03-.05-.04-.04-.07-.09-.11-.13-.11-.13-.13.01-.22.07-.05.03-.23.03-.16.13Z"/>
    <path class="cls-1" d="m14.98,70.82s-.03.05-.04.08c-.01.08.05.14.12.19.13.08.28.13.43.14.02,0,.04,0,.06,0,.04-.01.06-.06.09-.09.07-.08.17-.13.27-.12.04,0,.08.01.12,0,.06-.03.07-.12.05-.19-.02-.11-.07-.21-.17-.27-.07-.04-.16-.05-.24-.05-.09,0-.18-.01-.27-.02-.1,0-.18-.01-.24.06-.07.08-.13.18-.19.27Z"/>
    <path class="cls-1" d="m15.05,73.32s-.06.07-.08.11c-.01.03-.02.05-.03.08-.02.05-.05.1-.07.15-.03.05-.05.1-.08.14-.01.02-.02.04-.03.06,0,0,0,0,0,0-.02.02-.03.04-.03.07,0,.04.01.08.04.11.04.04.1.04.15.02.04-.02.07-.04.09-.07.04-.05.08-.11.12-.17.03-.05.06-.11.09-.16.03-.07.09-.15.08-.23,0-.05-.03-.1-.08-.12-.05-.02-.1-.02-.15.01Z"/>
    <path class="cls-1" d="m17.25,69.56s-.07.05-.08.09c-.01.07,0,.13.02.2.01.05.04.1.06.15.05.1.11.2.17.3.05.07.16.09.23.04.07-.05.09-.15.04-.23-.07-.11-.14-.22-.2-.34-.03-.07-.07-.14-.14-.19-.03-.02-.07-.04-.12-.02Z"/>
  </g>
  <g>
    <path class="cls-1" d="m19.71,69.36c-.01.05-.08.12-.36.18.06.19.19.35.37.44.02.01.04.02.07.02.06,0,.09-.06.12-.1.14-.15.43-.09.52-.28-.16-.13-.34-.24-.53-.33-.05-.02-.12-.03-.16,0-.02.02-.02.05-.02.06Z"/>
    <path class="cls-1" d="m23.59,69.07c.07-.01.13-.08.13-.15,0-.13-.17-.21-.27-.13-.13.1,0,.3.14.28Z"/>
    <path class="cls-1" d="m25.53,66.33c.07.1.15.19.25.27.03.02.06.05.09.05.06,0,.09-.06.11-.11.02-.05.04-.11.05-.17,0-.02,0-.04,0-.06,0-.02-.02-.03-.03-.05-.04-.04-.07-.09-.11-.13-.11-.13-.13.01-.22.07-.05.03-.23.03-.16.13Z"/>
    <path class="cls-1" d="m21.75,66.09s-.03.05-.04.08c-.01.08.05.14.12.19.13.08.28.13.43.14.02,0,.04,0,.06,0,.04-.01.06-.06.09-.09.07-.08.17-.13.27-.12.04,0,.08.01.12,0,.06-.03.07-.12.05-.19-.02-.11-.07-.21-.17-.27-.07-.04-.16-.05-.24-.05-.09,0-.18-.01-.27-.02-.1,0-.18-.01-.24.06-.07.08-.13.18-.19.27Z"/>
    <path class="cls-1" d="m21.82,68.59s-.06.07-.08.11c-.01.03-.02.05-.03.08-.02.05-.05.1-.07.15-.03.05-.05.1-.08.14-.01.02-.02.04-.03.06,0,0,0,0,0,0-.02.02-.03.04-.03.07,0,.04.01.08.04.11.04.04.1.04.15.02.04-.02.07-.04.09-.07.04-.05.08-.11.12-.17.03-.05.06-.11.09-.16.03-.07.09-.15.08-.23,0-.05-.03-.1-.08-.12-.05-.02-.1-.02-.15.01Z"/>
    <path class="cls-1" d="m24.02,64.83s-.07.05-.08.09c-.01.07,0,.13.02.2.01.05.04.1.06.15.05.1.11.2.17.3.05.07.16.09.23.04.07-.05.09-.15.04-.23-.07-.11-.14-.22-.2-.34-.03-.07-.07-.14-.14-.19-.03-.02-.07-.04-.12-.02Z"/>
  </g>
  <g>
    <path class="cls-1" d="m16.09,67.09c-.01.05-.08.12-.36.18.06.19.19.35.37.44.02.01.04.02.07.02.06,0,.09-.06.12-.1.14-.15.43-.09.52-.28-.16-.13-.34-.24-.53-.33-.05-.02-.12-.03-.16,0-.02.02-.02.05-.02.06Z"/>
    <path class="cls-1" d="m19.97,66.8c.07-.01.13-.08.13-.15,0-.13-.17-.21-.27-.13-.13.1,0,.3.14.28Z"/>
    <path class="cls-1" d="m21.91,64.06c.07.1.15.19.25.27.03.02.06.05.09.05.06,0,.09-.06.11-.11.02-.05.04-.11.05-.17,0-.02,0-.04,0-.06,0-.02-.02-.03-.03-.05-.04-.04-.07-.09-.11-.13-.11-.13-.13.01-.22.07-.05.03-.23.03-.16.13Z"/>
    <path class="cls-1" d="m18.13,63.82s-.03.05-.04.08c-.01.08.05.14.12.19.13.08.28.13.43.14.02,0,.04,0,.06,0,.04-.01.06-.06.09-.09.07-.08.17-.13.27-.12.04,0,.08.01.12,0,.06-.03.07-.12.05-.19-.02-.11-.07-.21-.17-.27-.07-.04-.16-.05-.24-.05-.09,0-.18-.01-.27-.02-.1,0-.18-.01-.24.06-.07.08-.13.18-.19.27Z"/>
    <path class="cls-1" d="m18.2,66.32s-.06.07-.08.11c-.01.03-.02.05-.03.08-.02.05-.05.1-.07.15-.03.05-.05.1-.08.14-.01.02-.02.04-.03.06,0,0,0,0,0,0-.02.02-.03.04-.03.07,0,.04.01.08.04.11.04.04.1.04.15.02.04-.02.07-.04.09-.07.04-.05.08-.11.12-.17.03-.05.06-.11.09-.16.03-.07.09-.15.08-.23,0-.05-.03-.1-.08-.12-.05-.02-.1-.02-.15.01Z"/>
    <path class="cls-1" d="m20.39,62.56s-.07.05-.08.09c-.01.07,0,.13.02.2.01.05.04.1.06.15.05.1.11.2.17.3.05.07.16.09.23.04.07-.05.09-.15.04-.23-.07-.11-.14-.22-.2-.34-.03-.07-.07-.14-.14-.19-.03-.02-.07-.04-.12-.02Z"/>
  </g>
  <g>
    <path class="cls-1" d="m20.69,60.35c-.01-.05-.09-.12-.37-.16.05-.19.18-.36.34-.46.02-.01.04-.02.07-.02.06,0,.09.06.13.1.14.14.43.07.53.25-.16.14-.33.26-.52.35-.05.02-.12.04-.16,0-.02-.02-.02-.05-.03-.06Z"/>
    <path class="cls-1" d="m24.58,60.46c.07,0,.13.07.14.14,0,.13-.17.21-.27.14-.13-.09-.02-.3.13-.29Z"/>
    <path class="cls-1" d="m26.64,63.11c.06-.1.14-.2.23-.28.03-.02.06-.05.09-.05.06,0,.09.05.12.1.03.05.05.11.06.17,0,.02.01.04,0,.06,0,.02-.02.03-.03.05-.03.05-.07.09-.1.14-.1.14-.13,0-.22-.06-.05-.03-.23-.02-.17-.12Z"/>
    <path class="cls-1" d="m22.88,63.52s-.03-.05-.04-.08c-.02-.08.05-.15.11-.19.12-.09.27-.14.42-.16.02,0,.04,0,.06,0,.04.01.07.05.09.08.07.08.18.12.28.11.04,0,.08-.02.12,0,.06.03.07.11.06.18-.02.11-.06.22-.15.28-.07.05-.16.06-.24.06-.09,0-.18.02-.27.03-.1.01-.18.02-.25-.05-.08-.08-.14-.18-.21-.26Z"/>
    <path class="cls-1" d="m22.83,61.02s-.06-.06-.08-.11c-.01-.02-.02-.05-.04-.07-.03-.05-.05-.1-.08-.15-.03-.05-.06-.09-.09-.14-.01-.02-.02-.04-.04-.06,0,0,0,0,0,0-.02-.02-.03-.04-.04-.07-.01-.04,0-.08.03-.11.04-.04.1-.04.14-.03.04.01.07.04.1.07.05.05.09.11.12.17.03.05.07.1.1.16.04.06.1.15.09.22,0,.05-.03.1-.08.12-.04.02-.1.02-.15,0Z"/>
    <path class="cls-1" d="m25.2,64.67s-.07-.05-.08-.09c-.02-.07,0-.13.02-.2.01-.05.04-.1.05-.15.04-.11.1-.21.15-.31.04-.07.15-.1.22-.05.07.05.1.15.05.22-.07.11-.13.23-.18.35-.03.07-.07.15-.13.19-.03.03-.07.04-.11.03Z"/>
  </g>
  <g>
    <path class="cls-1" d="m22.8,61.99c-.01.05-.08.12-.36.18.06.19.19.35.37.44.02.01.04.02.07.02.06,0,.09-.06.12-.1.14-.15.43-.09.52-.28-.16-.13-.34-.24-.53-.33-.05-.02-.12-.03-.16,0-.02.02-.02.05-.02.06Z"/>
    <path class="cls-1" d="m26.68,61.7c.07-.01.13-.08.13-.15,0-.13-.17-.21-.27-.13-.13.1,0,.3.14.28Z"/>
    <path class="cls-1" d="m28.62,58.95c.07.1.15.19.25.27.03.02.06.05.09.05.06,0,.09-.06.11-.11.02-.05.04-.11.05-.17,0-.02,0-.04,0-.06,0-.02-.02-.03-.03-.05-.04-.04-.07-.09-.11-.13-.11-.13-.13.01-.22.07-.05.03-.23.03-.16.13Z"/>
    <path class="cls-1" d="m24.84,58.72s-.03.05-.04.08c-.01.08.05.14.12.19.13.08.28.13.43.14.02,0,.04,0,.06,0,.04-.01.06-.06.09-.09.07-.08.17-.13.27-.12.04,0,.08.01.12,0,.06-.03.07-.12.05-.19-.02-.11-.07-.21-.17-.27-.07-.04-.16-.05-.24-.05-.09,0-.18-.01-.27-.02-.1,0-.18-.01-.24.06-.07.08-.13.18-.19.27Z"/>
    <path class="cls-1" d="m24.91,61.22s-.06.07-.08.11c-.01.03-.02.05-.03.08-.02.05-.05.1-.07.15-.03.05-.05.1-.08.14-.01.02-.02.04-.03.06,0,0,0,0,0,0-.02.02-.03.04-.03.07,0,.04.01.08.04.11.04.04.1.04.15.02.04-.02.07-.04.09-.07.04-.05.08-.11.12-.17.03-.05.06-.11.09-.16.03-.07.09-.15.08-.23,0-.05-.03-.1-.08-.12-.05-.02-.1-.02-.15.01Z"/>
    <path class="cls-1" d="m27.11,57.46s-.07.05-.08.09c-.01.07,0,.13.02.2.01.05.04.1.06.15.05.1.11.2.17.3.05.07.16.09.23.04.07-.05.09-.15.04-.23-.07-.11-.14-.22-.2-.34-.03-.07-.07-.14-.14-.19-.03-.02-.07-.04-.12-.02Z"/>
  </g>
  <g>
    <path class="cls-1" d="m50.71,60.43s-.02-.15.15-.37c-.17-.1-.37-.13-.57-.09-.02,0-.05.01-.07.03-.04.04-.02.1-.03.16,0,.2-.26.36-.2.55.21,0,.42-.04.62-.11.05-.02.11-.06.11-.11,0-.03-.02-.05-.02-.06Z"/>
    <path class="cls-1" d="m47.99,63.21c-.05.06-.05.14,0,.2.08.1.27.04.29-.08.03-.16-.19-.23-.29-.12Z"/>
    <path class="cls-1" d="m48.36,66.56c-.12-.03-.24-.04-.36-.04-.04,0-.08,0-.1.03-.04.04-.03.1-.01.16.02.06.04.11.07.16.01.02.02.04.04.05.02,0,.03.01.05.02.06,0,.11.02.17.03.17.03.09-.1.12-.19.01-.06.15-.17.03-.2Z"/>
    <path class="cls-1" d="m51.35,64.23s0-.06-.02-.08c-.04-.07-.13-.07-.21-.06-.15.02-.3.09-.42.18-.02.01-.03.03-.04.04-.02.04-.01.08,0,.13,0,.1-.04.21-.13.27-.03.02-.07.05-.09.08-.03.06.03.13.08.18.09.06.2.11.3.09.08-.02.15-.07.22-.12.07-.06.14-.11.21-.17.08-.06.14-.11.14-.21,0-.11-.02-.23-.04-.33Z"/>
    <path class="cls-1" d="m49.64,62.4s0-.09-.02-.13c0-.03-.02-.05-.03-.08-.02-.05-.03-.11-.05-.16-.01-.05-.02-.11-.03-.16,0-.02-.01-.05-.02-.07,0,0,0,0,0,0,0-.03,0-.05-.02-.07-.02-.04-.06-.05-.1-.05-.05,0-.1.04-.12.08-.02.04-.02.08-.02.12,0,.07.02.14.03.21.01.06.02.12.04.18.02.07.04.17.09.22.04.03.09.05.14.03.05-.01.09-.06.1-.11Z"/>
    <path class="cls-1" d="m50.49,66.67s.02-.08,0-.12c-.03-.06-.09-.1-.15-.13-.04-.03-.09-.05-.14-.07-.11-.05-.21-.08-.33-.11-.08-.02-.18.03-.2.12-.02.09.03.17.12.2.13.04.25.08.37.12.07.03.15.06.23.05.04,0,.08-.02.1-.06Z"/>
  </g>
  <g>
    <path class="cls-1" d="m48.78,68.46s-.02-.15.15-.37c-.17-.1-.37-.13-.57-.09-.02,0-.05.01-.07.03-.04.04-.02.1-.03.16,0,.2-.26.36-.2.55.21,0,.42-.04.62-.11.05-.02.11-.06.11-.11,0-.03-.02-.05-.02-.06Z"/>
    <path class="cls-1" d="m46.07,71.24c-.05.06-.05.14,0,.2.08.1.27.04.29-.08.03-.16-.19-.23-.29-.12Z"/>
    <path class="cls-1" d="m46.44,74.59c-.12-.03-.24-.04-.36-.04-.04,0-.08,0-.1.03-.04.04-.03.1-.01.16.02.06.04.11.07.16.01.02.02.04.04.05.02,0,.03.01.05.02.06,0,.11.02.17.03.17.03.09-.1.12-.19.01-.06.15-.17.03-.2Z"/>
    <path class="cls-1" d="m49.42,72.26s0-.06-.02-.08c-.04-.07-.13-.07-.21-.06-.15.02-.3.09-.42.18-.02.01-.03.03-.04.04-.02.04-.01.08,0,.13,0,.1-.04.21-.13.27-.03.02-.07.05-.09.08-.03.06.03.13.08.18.09.06.2.11.3.09.08-.02.15-.07.22-.12.07-.06.14-.11.21-.17.08-.06.14-.11.14-.21,0-.11-.02-.23-.04-.33Z"/>
    <path class="cls-1" d="m47.71,70.43s0-.09-.02-.13c0-.03-.02-.05-.03-.08-.02-.05-.03-.11-.05-.16-.01-.05-.02-.11-.03-.16,0-.02-.01-.05-.02-.07,0,0,0,0,0,0,0-.03,0-.05-.02-.07-.02-.04-.06-.05-.1-.05-.05,0-.1.04-.12.08-.02.04-.02.08-.02.12,0,.07.02.14.03.21.01.06.02.12.04.18.02.07.04.17.09.22.04.03.09.05.14.03.05-.01.09-.06.1-.11Z"/>
    <path class="cls-1" d="m48.56,74.7s.02-.08,0-.12c-.03-.06-.09-.1-.15-.13-.04-.03-.09-.05-.14-.07-.11-.05-.21-.08-.33-.11-.08-.02-.18.03-.2.12-.02.09.03.17.12.2.13.04.25.08.37.12.07.03.15.06.23.05.04,0,.08-.02.1-.06Z"/>
  </g>
  <g>
    <path class="cls-1" d="m53,67.76s-.02-.15.15-.37c-.17-.1-.37-.13-.57-.09-.02,0-.05.01-.07.03-.04.04-.02.1-.03.16,0,.2-.26.36-.2.55.21,0,.42-.04.62-.11.05-.02.11-.06.11-.11,0-.03-.02-.05-.02-.06Z"/>
    <path class="cls-1" d="m50.28,70.54c-.05.06-.05.14,0,.2.08.1.27.04.29-.08.03-.16-.19-.23-.29-.12Z"/>
    <path class="cls-1" d="m50.65,73.88c-.12-.03-.24-.04-.36-.04-.04,0-.08,0-.1.03-.04.04-.03.1-.01.16.02.06.04.11.07.16.01.02.02.04.04.05.02,0,.03.01.05.02.06,0,.11.02.17.03.17.03.09-.1.12-.19.01-.06.15-.17.03-.2Z"/>
    <path class="cls-1" d="m53.64,71.55s0-.06-.02-.08c-.04-.07-.13-.07-.21-.06-.15.02-.3.09-.42.18-.02.01-.03.03-.04.04-.02.04-.01.08,0,.13,0,.1-.04.21-.13.27-.03.02-.07.05-.09.08-.03.06.03.13.08.18.09.06.2.11.3.09.08-.02.15-.07.22-.12.07-.06.14-.11.21-.17.08-.06.14-.11.14-.21,0-.11-.02-.23-.04-.33Z"/>
    <path class="cls-1" d="m51.93,69.73s0-.09-.02-.13c0-.03-.02-.05-.03-.08-.02-.05-.03-.11-.05-.16-.01-.05-.02-.11-.03-.16,0-.02-.01-.05-.02-.07,0,0,0,0,0,0,0-.03,0-.05-.02-.07-.02-.04-.06-.05-.1-.05-.05,0-.1.04-.12.08-.02.04-.02.08-.02.12,0,.07.02.14.03.21.01.06.02.12.04.18.02.07.04.17.09.22.04.03.09.05.14.03.05-.01.09-.06.1-.11Z"/>
    <path class="cls-1" d="m52.78,74s.02-.08,0-.12c-.03-.06-.09-.1-.15-.13-.04-.03-.09-.05-.14-.07-.11-.05-.21-.08-.33-.11-.08-.02-.18.03-.2.12-.02.09.03.17.12.2.13.04.25.08.37.12.07.03.15.06.23.05.04,0,.08-.02.1-.06Z"/>
  </g>
  <g>
    <path class="cls-1" d="m54.02,75.85s.14.03.38-.12c.09.17.1.38.04.57,0,.02-.02.05-.04.06-.04.04-.11.02-.16.01-.2-.01-.37.23-.56.16.02-.21.08-.41.15-.61.03-.05.07-.11.11-.11.03,0,.05.02.06.03Z"/>
    <path class="cls-1" d="m51.04,78.35c-.06.04-.15.04-.2-.01-.09-.09-.02-.27.1-.28.16-.02.22.21.09.3Z"/>
    <path class="cls-1" d="m47.73,77.73c.02.12.02.24.01.37,0,.04,0,.07-.04.1-.04.04-.11.02-.16,0-.05-.02-.11-.05-.16-.08-.02-.01-.04-.02-.05-.04,0-.02,0-.03-.01-.05,0-.06,0-.11-.01-.17-.01-.17.1-.09.2-.1.06-.01.18-.14.2-.02Z"/>
    <path class="cls-1" d="m50.28,74.93s.06.01.08.03c.06.05.06.14.05.22-.03.15-.11.29-.21.4-.01.01-.03.03-.05.04-.04.02-.08,0-.13,0-.1-.01-.21.03-.28.11-.03.03-.05.07-.09.08-.07.02-.13-.04-.17-.1-.06-.09-.1-.2-.07-.31.02-.08.08-.14.14-.21.06-.07.12-.13.18-.2.07-.07.12-.13.22-.12.11,0,.22.04.33.06Z"/>
    <path class="cls-1" d="m51.97,76.77c.05,0,.09,0,.13.03.03.01.05.02.08.03.05.02.11.04.16.06.05.02.1.03.16.05.02,0,.04.01.07.02,0,0,0,0,0,0,.03,0,.05.01.07.03.03.02.05.07.05.1,0,.05-.04.1-.09.12-.04.02-.08.02-.12.01-.07,0-.14-.03-.2-.04-.06-.02-.12-.03-.17-.05-.07-.02-.17-.05-.21-.11-.03-.04-.04-.09-.02-.14.02-.05.06-.09.11-.09Z"/>
    <path class="cls-1" d="m47.78,75.6s.08-.01.12.01c.06.04.09.1.12.16.02.05.04.1.06.15.04.11.07.22.09.33.02.08-.05.18-.13.19-.09.01-.17-.04-.19-.13-.03-.13-.06-.26-.1-.38-.02-.07-.05-.15-.03-.23,0-.04.03-.08.07-.1Z"/>
  </g>
  <g>
    <path class="cls-1" d="m51.35,76.03s-.02-.15.15-.37c-.17-.1-.37-.13-.57-.09-.02,0-.05.01-.07.03-.04.04-.02.1-.03.16,0,.2-.26.36-.2.55.21,0,.42-.04.62-.11.05-.02.11-.06.11-.11,0-.03-.02-.05-.02-.06Z"/>
    <path class="cls-1" d="m48.64,78.81c-.05.06-.05.14,0,.2.08.1.27.04.29-.08.03-.16-.19-.23-.29-.12Z"/>
    <path class="cls-1" d="m49.01,82.16c-.12-.03-.24-.04-.36-.04-.04,0-.08,0-.1.03-.04.04-.03.1-.01.16.02.06.04.11.07.16.01.02.02.04.04.05.02,0,.03.01.05.02.06,0,.11.02.17.03.17.03.09-.1.12-.19.01-.06.15-.17.03-.2Z"/>
    <path class="cls-1" d="m52,79.83s0-.06-.02-.08c-.04-.07-.13-.07-.21-.06-.15.02-.3.09-.42.18-.02.01-.03.03-.04.04-.02.04-.01.08,0,.13,0,.1-.04.21-.13.27-.03.02-.07.05-.09.08-.03.06.03.13.08.18.09.06.2.11.3.09.08-.02.15-.07.22-.12.07-.06.14-.11.21-.17.08-.06.14-.11.14-.21,0-.11-.02-.23-.04-.33Z"/>
    <path class="cls-1" d="m50.29,78s0-.09-.02-.13c0-.03-.02-.05-.03-.08-.02-.05-.03-.11-.05-.16-.01-.05-.02-.11-.03-.16,0-.02-.01-.05-.02-.07,0,0,0,0,0,0,0-.03,0-.05-.02-.07-.02-.04-.06-.05-.1-.05-.05,0-.1.04-.12.08-.02.04-.02.08-.02.12,0,.07.02.14.03.21.01.06.02.12.04.18.02.07.04.17.09.22.04.03.09.05.14.03.05-.01.09-.06.1-.11Z"/>
    <path class="cls-1" d="m51.13,82.27s.02-.08,0-.12c-.03-.06-.09-.1-.15-.13-.04-.03-.09-.05-.14-.07-.11-.05-.21-.08-.33-.11-.08-.02-.18.03-.2.12-.02.09.03.17.12.2.13.04.25.08.37.12.07.03.15.06.23.05.04,0,.08-.02.1-.06Z"/>
  </g>
</svg>