<?xml version="1.0" encoding="UTF-8"?>
<svg id="_Ñëîé_1" data-name="Ñëîé 1" xmlns="http://www.w3.org/2000/svg" viewBox="0 0 95 95">
  <defs>
    <style>
      .cls-1 {
        fill: #fcebb6;
      }
    </style>
  </defs>
  <path class="cls-1" d="m47.5,0C21.27,0,0,21.27,0,47.5s21.27,47.5,47.5,47.5,47.5-21.27,47.5-47.5S73.73,0,47.5,0Zm-28.27,25.42c-1.01,1.3-1.94,2.67-2.77,4.09-.19.32-.53.5-.88.5-.17,0-.35-.04-.51-.14-.48-.28-.65-.9-.37-1.38.87-1.5,1.85-2.95,2.92-4.32.34-.44.98-.52,1.42-.17.44.34.52.98.17,1.42Zm2.42-3.21c-.26,0-.52-.1-.72-.3-.39-.4-.39-1.04.01-1.43,6.63-6.51,15.38-10.36,24.64-10.82.56-.02,1.03.4,1.06.96.03.56-.4,1.03-.96,1.06-8.76.44-17.05,4.08-23.32,10.24-.2.19-.45.29-.71.29Zm25.85,41.33c-8.86,0-16.04-7.18-16.04-16.04s7.18-16.04,16.04-16.04,16.04,7.18,16.04,16.04-7.18,16.04-16.04,16.04Z"/>
</svg>