<?xml version="1.0" encoding="UTF-8"?>
<svg id="Camada_2" data-name="Camada 2" xmlns="http://www.w3.org/2000/svg" viewBox="0 0 36.54 48.46">
  <defs>
    <style>
      .cls-1 {
        fill: #1d1d1b;
        stroke-width: 0px;
      }
    </style>
  </defs>
  <g id="Camada_1-2" data-name="Camada 1">
    <path id="MaskS1" class="cls-1" d="M4.48.27L1.94,2.81C2.12,4.52-.11,5.51.1,8.63c.21,3.03,2.4,3.56,2.78,6.94.31,2.68-.99,3.06-.83,6.22.02.45.07.88.14,1.3-.74.19-1.52.09-2.19.29l3.05,5.87c1.39.05,2.87-.36,4.17-.78.97-.24,2.01.19,3.12.18-.15,2.52.65,4.58,1.02,5.52.54,1.39,2.17,5.53,5.88,6.93,3.39,1.28,5.48-.88,7.49.77,1.89,1.56.78,3.92,2.69,5.57.11.1.23.19.34.27.35.25.68.42,1.01.54.22.08.43.14.64.17.34.06.67.06.98.03.1,0,.19-.01.28-.03.36-.05.69-.13.99-.22.19-.05.36-.1.52-.14.08-.02.15-.04.22-.05.06-.01.12-.02.17-.02,1.57-1.16,3.02-2.23,3.96-2.9v-.02C36.72,24.42,23.72,6.78,5.46.06c-.34-.12-.72-.04-.98.22Z"/>
  </g>
</svg>