<?xml version="1.0" encoding="UTF-8"?>
<svg id="Camada_2" data-name="Camada 2" xmlns="http://www.w3.org/2000/svg" viewBox="0 0 39.62 34.45">
  <defs>
    <style>
      .cls-1 {
        fill: #e30613;
        stroke-width: 0px;
      }
    </style>
  </defs>
  <g id="Camada_1-2" data-name="Camada 1">
    <path id="MaskS2" class="cls-1" d="M5.5,15.67l.94,2.63c6.27-5.18,14.04-8.23,22.21-8.64.56-.02,1.03.4,1.06.96.03.56-.4,1.03-.96,1.06-7.98.4-15.56,3.46-21.58,8.65l.22.6,2.92,1.38,2.89,6.09s3.2,1.48,3.47,1.44c.28-.03,2.73,3.76,2.73,3.76l1.72.75s.06.04.14.1c2.63-1.88,5.83-2.99,9.31-2.99.33,0,.64.03.96.05v-.14c-.05-.65.34-1.26.95-1.5l5.26-2.08c.67-.26,1.06-.96.94-1.66l-1.75-10.29c-.06-.34,0-.69.17-.99l2.34-4.26c.14-.26.21-.55.18-.85l-.35-4.49s0-.07-.01-.1l-.65-4.46c-2.61-.45-5.29-.69-8.03-.69C18.93,0,8.26,4.2,0,11.16l1.89,1.59,3.61,2.92Z"/>
  </g>
</svg>