<?xml version="1.0" encoding="UTF-8"?>
<svg id="_Ñëîé_1" data-name="Ñëîé 1" xmlns="http://www.w3.org/2000/svg" viewBox="0 0 95 95">
  <defs>
    <style>
      .cls-1 {
        fill: #fcebb6;
      }
    </style>
  </defs>
  <g>
    <path class="cls-1" d="m73.26,60.07c0,.06-.01.12-.02.19,0,0,.01,0,.02,0v-.19Z"/>
    <path class="cls-1" d="m63.64,54.98c0,.06,0,.13,0,.19,0,0,0,0,0,0v-.19Z"/>
    <path class="cls-1" d="m52.3,87.6c-1.32-1.13-3.77-.75-4.53-2.45-.75-1.51,2.64-1.13,3.21-2.64-1.32-.57-2.26-1.13-2.83-2.45-.38-1.7.19-3.21,1.32-4.53h.75c-.94-1.89-4.15-2.64-2.83-4.9.38-.94,1.7-1.32,2.26-2.07-.94,0-1.51-.75-1.89-1.13-.94-1.13.75-3.02,2.26-3.58-.94-.19-1.51-.38-1.7-1.32-.07-.34-.15-.7-.21-1.08-.38.03-.76.05-1.14.05-6.88,0-12.62-4.92-13.89-11.43-.29-.26-.56-.57-.79-.93.19,1.32-1.32,1.51-2.07,1.7-2.07.19-4.71-.38-5.66-2.64,0,1.13-1.32,1.7-2.26,1.89s-1.89.19-2.26-.94c.19,3.21-3.77,3.02-5.84,2.45-1.7-.38-2.45-2.64-3.39-2.83-2.4-.17-4.49,2.47-7.12,2.94-.24,4.86-.27,5.28-.12,6.4.83,6.33,3.99,10.82,5.8,13.33,4.85,6.72,10.77,9.91,15.37,12.39,4.59,2.47,11.88,6.29,22.09,6.61.42.01,1.09.03,1.96.01-.44-1.43,1.83-2.5,3.5-2.84Z"/>
    <path class="cls-1" d="m80.57,55.06c-.89,1.03-2.53,1.47-3.41,1.13-1.01-.28-1.87-1.32-2.09-2.56-1.86.32-4.1,2.09-5.45.71-1.92-2.02-1.62-.92-4.33-1.55-.55-.03-.65-.84-.81-1.54-1.39.67-3.27.73-4.28-.26-.98,4.67-4.31,8.69-9.02,10.4.16.35.32.68.48.99.43.86,1.03.89,1.99.83-1.31.94-2.44,3.21-1.24,4.05.46.26,1.21.84,2.12.59-.35.88-1.52,1.59-1.63,2.6-.68,2.53,2.61,2.41,4.02,3.98l-.73.2c-.74,1.57-.89,3.18-.08,4.71.89,1.12,1.95,1.42,3.37,1.62-.15,1.6-3.52,2.14-2.39,3.39,1.18,1.44,3.44.43,5.01,1.17-1.53.76-3.43,2.4-2.63,3.66,4.57-1.35,14.77-5.21,22.35-14.94,1.48-1.89,4.72-6.14,6.65-12.55.29-.95.44-2.02.58-3.34-3.16.24-6.41-1-8.47-3.3Z"/>
    <path class="cls-1" d="m11.94,38.91c.83.48.81,2.87,2.3,3.77,1.78,1.21,5.47,2.67,6.32-.43,0,1.19.88,1.5,1.84,1.62s2.38.02,2.75-1.05c.16,2.45,2.48,3.83,4.5,4.33.77.07,2.26.37,2.51-.93.1.41.26.79.45,1.13.12-.89.33-1.78.63-2.66,1.64-4.79,5.59-8.13,10.18-9.2-.64-.05-1.32-.16-1.72-.75-.06-.42.72-.95.73-1.54-1.2,1.18-3.04.16-3.93-.75-.3-.3-.23-1.07.67-1.37-1.13-.19-2.5-.26-3.39-1.16-.59-.6.55-1.61.85-2.5-1.67.23-4.18.56-4.76-1.23-.17-.66.25-1.91.91-2.68-1.07-.37-2.44-.44-2.97-1.22-.41-.54.73-1.54.85-2.5-1.25.17-2.2-.55-3.33-.74l.91-2.68c-1.19,0-2.5-.26-2.97-1.22-.47-.36.37-1.07.61-1.78-1.3-.07-2.38.29-3.45-.33-.44.34-.9.69-1.38,1.05-5.48,4.18-8.22,6.27-10.54,9.99-.81,1.29-.81,1.55-4.71,11.38-.62,1.57-1.13,2.85-1.55,3.91,2.64.4,5.47-1.42,7.69-.48Z"/>
  </g>
  <g>
    <path class="cls-1" d="m34.71,9.06c-.09-.03-.19-.18-.22-.68-.34.06-.66.25-.87.53-.03.04-.05.07-.05.12,0,.1.09.17.15.24.22.28.06.78.36.97.27-.25.51-.54.71-.86.04-.09.08-.2.03-.27-.03-.04-.08-.05-.11-.06Z"/>
    <path class="cls-1" d="m34.25,15.95c0,.13.1.25.23.27.22.04.41-.26.3-.45-.14-.25-.53-.09-.53.18Z"/>
    <path class="cls-1" d="m38.6,20.04c-.19.1-.38.22-.54.36-.05.04-.1.09-.1.16-.01.1.08.18.16.23.09.06.18.1.28.14.03.01.07.03.11.02.03,0,.06-.02.09-.04.09-.05.17-.11.26-.16.26-.16.02-.24-.06-.4-.05-.1.01-.41-.19-.31Z"/>
    <path class="cls-1" d="m39.95,13.45s-.08-.07-.13-.08c-.13-.04-.27.06-.36.16-.18.2-.3.46-.35.72,0,.04-.01.07,0,.11.02.07.08.13.13.18.13.13.18.33.14.51-.02.07-.04.14-.02.21.04.12.19.15.31.14.19-.01.39-.08.51-.23.09-.12.12-.27.15-.41.03-.16.06-.31.1-.47.03-.17.06-.31-.05-.45-.12-.15-.29-.28-.43-.41Z"/>
    <path class="cls-1" d="m35.54,12.95c-.04-.08-.1-.12-.18-.16-.04-.02-.08-.05-.13-.08-.09-.05-.17-.11-.25-.17-.08-.06-.16-.12-.23-.18-.03-.03-.07-.05-.1-.07,0,0,0,0,0,0-.03-.04-.07-.06-.11-.07-.07-.03-.14,0-.2.04-.08.06-.09.16-.07.25.02.07.06.13.11.18.08.09.18.17.28.25.08.07.17.13.26.2.11.07.25.2.38.19.09,0,.18-.04.23-.12.05-.07.06-.18.01-.26Z"/>
    <path class="cls-1" d="m41.6,17.75c-.02-.07-.07-.13-.14-.15-.12-.04-.23-.02-.35,0-.09.01-.18.05-.27.07-.2.06-.39.14-.57.22-.14.06-.2.25-.13.39.08.14.24.2.39.13.21-.1.43-.18.65-.26.13-.04.27-.09.37-.19.05-.05.08-.12.07-.2Z"/>
  </g>
  <g>
    <path class="cls-1" d="m41.36,22.13c-.09-.03-.19-.18-.22-.68-.34.06-.66.25-.87.53-.03.04-.05.07-.05.12,0,.1.09.17.15.24.22.28.06.78.36.97.27-.25.51-.54.71-.86.04-.09.08-.2.03-.27-.03-.04-.08-.05-.11-.06Z"/>
    <path class="cls-1" d="m40.89,29.03c0,.13.1.25.23.27.22.04.41-.26.3-.45-.14-.25-.53-.09-.53.18Z"/>
    <path class="cls-1" d="m45.25,33.12c-.19.1-.38.22-.54.36-.05.04-.1.09-.1.16-.01.1.08.18.16.23.09.06.18.1.28.14.03.01.07.03.11.02.03,0,.06-.02.09-.04.09-.05.17-.11.26-.16.26-.16.02-.24-.06-.4-.05-.1.01-.41-.19-.31Z"/>
    <path class="cls-1" d="m46.6,26.53s-.08-.07-.13-.08c-.13-.04-.27.06-.36.16-.18.2-.3.46-.35.72,0,.04-.01.07,0,.11.02.07.08.13.13.18.13.13.18.33.14.51-.02.07-.04.14-.02.21.04.12.19.15.31.14.19-.01.39-.08.51-.23.09-.12.12-.27.15-.41.03-.16.06-.31.1-.47.03-.17.06-.31-.05-.45-.12-.15-.29-.28-.43-.41Z"/>
    <path class="cls-1" d="m42.19,26.03c-.04-.08-.1-.12-.18-.16-.04-.02-.08-.05-.13-.08-.09-.05-.17-.11-.25-.17-.08-.06-.16-.12-.23-.18-.03-.03-.07-.05-.1-.07,0,0,0,0,0,0-.03-.04-.07-.06-.11-.07-.07-.03-.14,0-.2.04-.08.06-.09.16-.07.25.02.07.06.13.11.18.08.09.18.17.28.25.08.07.17.13.26.2.11.07.25.2.38.19.09,0,.18-.04.23-.12.05-.07.06-.18.01-.26Z"/>
    <path class="cls-1" d="m48.25,30.83c-.02-.07-.07-.13-.14-.15-.12-.04-.23-.02-.35,0-.09.01-.18.05-.27.07-.2.06-.39.14-.57.22-.14.06-.2.25-.13.39.08.14.24.2.39.13.21-.1.43-.18.65-.26.13-.04.27-.09.37-.19.05-.05.08-.12.07-.2Z"/>
  </g>
  <g>
    <path class="cls-1" d="m46.25,16.33c-.09-.03-.19-.18-.22-.68-.34.06-.66.25-.87.53-.03.04-.05.07-.05.12,0,.1.09.17.15.24.22.28.06.78.36.97.27-.25.51-.54.71-.86.04-.09.08-.2.03-.27-.03-.04-.08-.05-.11-.06Z"/>
    <path class="cls-1" d="m45.79,23.22c0,.13.1.25.23.27.22.04.41-.26.3-.45-.14-.25-.53-.09-.53.18Z"/>
    <path class="cls-1" d="m50.14,27.32c-.19.1-.38.22-.54.36-.05.04-.1.09-.1.16-.01.1.08.18.16.23.09.06.18.1.28.14.03.01.07.03.11.02.03,0,.06-.02.09-.04.09-.05.17-.11.26-.16.26-.16.02-.24-.06-.4-.05-.1.01-.41-.19-.31Z"/>
    <path class="cls-1" d="m51.49,20.72s-.08-.07-.13-.08c-.13-.04-.27.06-.36.16-.18.2-.3.46-.35.72,0,.04-.01.07,0,.11.02.07.08.13.13.18.13.13.18.33.14.51-.02.07-.04.14-.02.21.04.12.19.15.31.14.19-.01.39-.08.51-.23.09-.12.12-.27.15-.41.03-.16.06-.31.1-.47.03-.17.06-.31-.05-.45-.12-.15-.29-.28-.43-.41Z"/>
    <path class="cls-1" d="m47.08,20.23c-.04-.08-.1-.12-.18-.16-.04-.02-.08-.05-.13-.08-.09-.05-.17-.11-.25-.17-.08-.06-.16-.12-.23-.18-.03-.03-.07-.05-.1-.07,0,0,0,0,0,0-.03-.04-.07-.06-.11-.07-.07-.03-.14,0-.2.04-.08.06-.09.16-.07.25.02.07.06.13.11.18.08.09.18.17.28.25.08.07.17.13.26.2.11.07.25.2.38.19.09,0,.18-.04.23-.12.05-.07.06-.18.01-.26Z"/>
    <path class="cls-1" d="m53.15,25.03c-.02-.07-.07-.13-.14-.15-.12-.04-.23-.02-.35,0-.09.01-.18.05-.27.07-.2.06-.39.14-.57.22-.14.06-.2.25-.13.39.08.14.24.2.39.13.21-.1.43-.18.65-.26.13-.04.27-.09.37-.19.05-.05.08-.12.07-.2Z"/>
  </g>
  <g>
    <path class="cls-1" d="m56.97,26.1c.1,0,.23-.13.37-.61.32.14.58.4.72.72.02.04.03.08.03.13-.01.1-.12.14-.2.2-.28.22-.24.75-.57.86-.21-.31-.37-.64-.49-1-.02-.1-.03-.22.03-.27.04-.03.09-.03.12-.03Z"/>
    <path class="cls-1" d="m55.81,32.91c-.03.12-.16.22-.29.21-.23-.01-.34-.34-.19-.51.2-.21.54.04.47.29Z"/>
    <path class="cls-1" d="m50.62,35.88c.17.14.32.3.44.48.04.05.07.11.07.18-.01.1-.11.15-.21.18-.1.03-.2.06-.31.07-.04,0-.08,0-.11,0-.03-.01-.05-.03-.07-.06-.07-.07-.14-.14-.21-.21-.22-.21.04-.23.15-.37.07-.08.09-.4.25-.26Z"/>
    <path class="cls-1" d="m50.84,29.15s.09-.05.14-.05c.14-.01.25.12.31.24.13.24.19.52.18.79,0,.04,0,.07-.02.11-.03.07-.11.1-.17.14-.15.1-.25.28-.26.47,0,.07.01.15-.03.21-.06.11-.22.1-.34.06-.18-.06-.37-.17-.45-.34-.06-.13-.06-.29-.05-.44,0-.16.01-.32.02-.48,0-.17.01-.32.15-.42.15-.11.34-.21.51-.3Z"/>
    <path class="cls-1" d="m55.25,29.69c.06-.07.13-.09.21-.12.05-.01.09-.03.14-.04.1-.03.19-.07.28-.11.09-.04.18-.08.27-.12.04-.02.08-.03.11-.05,0,0,0,0,0,0,.04-.03.08-.04.13-.05.07-.01.14.03.18.09.06.08.05.18.01.26-.03.07-.09.11-.15.15-.1.07-.22.12-.33.18-.1.05-.2.09-.3.13-.12.05-.29.13-.42.1-.09-.02-.16-.08-.2-.17-.03-.08-.01-.19.05-.25Z"/>
    <path class="cls-1" d="m48.23,32.95c.03-.07.1-.11.17-.12.12-.01.23.03.34.08.09.03.17.09.25.13.18.1.34.22.5.35.12.09.14.29.04.41-.11.12-.28.14-.41.04-.18-.14-.37-.28-.57-.4-.11-.07-.24-.15-.31-.27-.04-.07-.05-.14-.02-.21Z"/>
  </g>
  <g>
    <path class="cls-1" d="m53.56,29.4c-.09-.03-.19-.18-.22-.68-.34.06-.66.25-.87.53-.03.04-.05.07-.05.12,0,.1.09.17.15.24.22.28.06.78.36.97.27-.25.51-.54.71-.86.04-.09.08-.2.03-.27-.03-.04-.08-.05-.11-.06Z"/>
    <path class="cls-1" d="m53.1,36.3c0,.13.1.25.23.27.22.04.41-.26.3-.45-.14-.25-.53-.09-.53.18Z"/>
    <path class="cls-1" d="m57.45,40.39c-.19.1-.38.22-.54.36-.05.04-.1.09-.1.16-.01.1.08.18.16.23.09.06.18.1.28.14.03.01.07.03.11.02.03,0,.06-.02.09-.04.09-.05.17-.11.26-.16.26-.16.02-.24-.06-.4-.05-.1.01-.41-.19-.31Z"/>
    <path class="cls-1" d="m58.8,33.8s-.08-.07-.13-.08c-.13-.04-.27.06-.36.16-.18.2-.3.46-.35.72,0,.04-.01.07,0,.11.02.07.08.13.13.18.13.13.18.33.14.51-.02.07-.04.14-.02.21.04.12.19.15.31.14.19-.01.39-.08.51-.23.09-.12.12-.27.15-.41.03-.16.06-.31.1-.47.03-.17.06-.31-.05-.45-.12-.15-.29-.28-.43-.41Z"/>
    <path class="cls-1" d="m54.39,33.3c-.04-.08-.1-.12-.18-.16-.04-.02-.08-.05-.13-.08-.09-.05-.17-.11-.25-.17-.08-.06-.16-.12-.23-.18-.03-.03-.07-.05-.1-.07,0,0,0,0,0,0-.03-.04-.07-.06-.11-.07-.07-.03-.14,0-.2.04-.08.06-.09.16-.07.25.02.07.06.13.11.18.08.09.18.17.28.25.08.07.17.13.26.2.11.07.25.2.38.19.09,0,.18-.04.23-.12.05-.07.06-.18.01-.26Z"/>
    <path class="cls-1" d="m60.45,38.1c-.02-.07-.07-.13-.14-.15-.12-.04-.23-.02-.35,0-.09.01-.18.05-.27.07-.2.06-.39.14-.57.22-.14.06-.2.25-.13.39.08.14.24.2.39.13.21-.1.43-.18.65-.26.13-.04.27-.09.37-.19.05-.05.08-.12.07-.2Z"/>
  </g>
  <g>
    <path class="cls-1" d="m57.81,20.21c-.09-.03-.19-.18-.22-.68-.34.06-.66.25-.87.53-.03.04-.05.07-.05.12,0,.1.09.17.15.24.22.28.06.78.36.97.27-.25.51-.54.71-.86.04-.09.08-.2.03-.27-.03-.04-.08-.05-.11-.06Z"/>
    <path class="cls-1" d="m57.34,27.11c0,.13.1.25.23.27.22.04.41-.26.3-.45-.14-.25-.53-.09-.53.18Z"/>
    <path class="cls-1" d="m61.7,31.2c-.19.1-.38.22-.54.36-.05.04-.1.09-.1.16-.01.1.08.18.16.23.09.06.18.1.28.14.03.01.07.03.11.02.03,0,.06-.02.09-.04.09-.05.17-.11.26-.16.26-.16.02-.24-.06-.4-.05-.1.01-.41-.19-.31Z"/>
    <path class="cls-1" d="m63.05,24.61s-.08-.07-.13-.08c-.13-.04-.27.06-.36.16-.18.2-.3.46-.35.72,0,.04-.01.07,0,.11.02.07.08.13.13.18.13.13.18.33.14.51-.02.07-.04.14-.02.21.04.12.19.15.31.14.19-.01.39-.08.51-.23.09-.12.12-.27.15-.41.03-.16.06-.31.1-.47.03-.17.06-.31-.05-.45-.12-.15-.29-.28-.43-.41Z"/>
    <path class="cls-1" d="m58.64,24.11c-.04-.08-.1-.12-.18-.16-.04-.02-.08-.05-.13-.08-.09-.05-.17-.11-.25-.17-.08-.06-.16-.12-.23-.18-.03-.03-.07-.05-.1-.07,0,0,0,0,0,0-.03-.04-.07-.06-.11-.07-.07-.03-.14,0-.2.04-.08.06-.09.16-.07.25.02.07.06.13.11.18.08.09.18.17.28.25.08.07.17.13.26.2.11.07.25.2.38.19.09,0,.18-.04.23-.12.05-.07.06-.18.01-.26Z"/>
    <path class="cls-1" d="m64.7,28.91c-.02-.07-.07-.13-.14-.15-.12-.04-.23-.02-.35,0-.09.01-.18.05-.27.07-.2.06-.39.14-.57.22-.14.06-.2.25-.13.39.08.14.24.2.39.13.21-.1.43-.18.65-.26.13-.04.27-.09.37-.19.05-.05.08-.12.07-.2Z"/>
  </g>
  <g>
    <path class="cls-1" d="m64.45,33.29c-.09-.03-.19-.18-.22-.68-.34.06-.66.25-.87.53-.03.04-.05.07-.05.12,0,.1.09.17.15.24.22.28.06.78.36.97.27-.25.51-.54.71-.86.04-.09.08-.2.03-.27-.03-.04-.08-.05-.11-.06Z"/>
    <path class="cls-1" d="m63.99,40.19c0,.13.1.25.23.27.22.04.41-.26.3-.45-.14-.25-.53-.09-.53.18Z"/>
    <path class="cls-1" d="m68.35,44.28c-.19.1-.38.22-.54.36-.05.04-.1.09-.1.16-.01.1.08.18.16.23.09.06.18.1.28.14.03.01.07.03.11.02.03,0,.06-.02.09-.04.09-.05.17-.11.26-.16.26-.16.02-.24-.06-.4-.05-.1.01-.41-.19-.31Z"/>
    <path class="cls-1" d="m69.7,37.69s-.08-.07-.13-.08c-.13-.04-.27.06-.36.16-.18.2-.3.46-.35.72,0,.04-.01.07,0,.11.02.07.08.13.13.18.13.13.18.33.14.51-.02.07-.04.14-.02.21.04.12.19.15.31.14.19-.01.39-.08.51-.23.09-.12.12-.27.15-.41.03-.16.06-.31.1-.47.03-.17.06-.31-.05-.45-.12-.15-.29-.28-.43-.41Z"/>
    <path class="cls-1" d="m65.29,37.19c-.04-.08-.1-.12-.18-.16-.04-.02-.08-.05-.13-.08-.09-.05-.17-.11-.25-.17-.08-.06-.16-.12-.23-.18-.03-.03-.07-.05-.1-.07,0,0,0,0,0,0-.03-.04-.07-.06-.11-.07-.07-.03-.14,0-.2.04-.08.06-.09.16-.07.25.02.07.06.13.11.18.08.09.18.17.28.25.08.07.17.13.26.2.11.07.25.2.38.19.09,0,.18-.04.23-.12.05-.07.06-.18.01-.26Z"/>
    <path class="cls-1" d="m71.35,41.99c-.02-.07-.07-.13-.14-.15-.12-.04-.23-.02-.35,0-.09.01-.18.05-.27.07-.2.06-.39.14-.57.22-.14.06-.2.25-.13.39.08.14.24.2.39.13.21-.1.43-.18.65-.26.13-.04.27-.09.37-.19.05-.05.08-.12.07-.2Z"/>
  </g>
  <g>
    <path class="cls-1" d="m69.35,27.49c-.09-.03-.19-.18-.22-.68-.34.06-.66.25-.87.53-.03.04-.05.07-.05.12,0,.1.09.17.15.24.22.28.06.78.36.97.27-.25.51-.54.71-.86.04-.09.08-.2.03-.27-.03-.04-.08-.05-.11-.06Z"/>
    <path class="cls-1" d="m68.89,34.38c0,.13.1.25.23.27.22.04.41-.26.3-.45-.14-.25-.53-.09-.53.18Z"/>
    <path class="cls-1" d="m73.24,38.48c-.19.1-.38.22-.54.36-.05.04-.1.09-.1.16-.01.1.08.18.16.23.09.06.18.1.28.14.03.01.07.03.11.02.03,0,.06-.02.09-.04.09-.05.17-.11.26-.16.26-.16.02-.24-.06-.4-.05-.1.01-.41-.19-.31Z"/>
    <path class="cls-1" d="m74.59,31.88s-.08-.07-.13-.08c-.13-.04-.27.06-.36.16-.18.2-.3.46-.35.72,0,.04-.01.07,0,.11.02.07.08.13.13.18.13.13.18.33.14.51-.02.07-.04.14-.02.21.04.12.19.15.31.14.19-.01.39-.08.51-.23.09-.12.12-.27.15-.41.03-.16.06-.31.1-.47.03-.17.06-.31-.05-.45-.12-.15-.29-.28-.43-.41Z"/>
    <path class="cls-1" d="m70.18,31.38c-.04-.08-.1-.12-.18-.16-.04-.02-.08-.05-.13-.08-.09-.05-.17-.11-.25-.17-.08-.06-.16-.12-.23-.18-.03-.03-.07-.05-.1-.07,0,0,0,0,0,0-.03-.04-.07-.06-.11-.07-.07-.03-.14,0-.2.04-.08.06-.09.16-.07.25.02.07.06.13.11.18.08.09.18.17.28.25.08.07.17.13.26.2.11.07.25.2.38.19.09,0,.18-.04.23-.12.05-.07.06-.18.01-.26Z"/>
    <path class="cls-1" d="m76.24,36.18c-.02-.07-.07-.13-.14-.15-.12-.04-.23-.02-.35,0-.09.01-.18.05-.27.07-.2.06-.39.14-.57.22-.14.06-.2.25-.13.39.08.14.24.2.39.13.21-.1.43-.18.65-.26.13-.04.27-.09.37-.19.05-.05.08-.12.07-.2Z"/>
  </g>
  <g>
    <path class="cls-1" d="m80.06,37.26c.1,0,.23-.13.37-.61.32.14.58.4.72.72.02.04.03.08.03.13-.01.1-.12.14-.2.2-.28.22-.24.75-.57.86-.21-.31-.37-.64-.49-1-.02-.1-.03-.22.03-.27.04-.03.09-.03.12-.03Z"/>
    <path class="cls-1" d="m78.91,44.07c-.03.12-.16.22-.29.21-.23-.01-.34-.34-.19-.51.2-.21.54.04.47.29Z"/>
    <path class="cls-1" d="m73.72,47.04c.17.14.32.3.44.48.04.05.07.11.07.18-.01.1-.11.15-.21.18-.1.03-.2.06-.31.07-.04,0-.08,0-.11,0-.03-.01-.05-.03-.07-.06-.07-.07-.14-.14-.21-.21-.22-.21.04-.23.15-.37.07-.08.09-.4.25-.26Z"/>
    <path class="cls-1" d="m73.94,40.31s.09-.05.14-.05c.14-.01.25.12.31.24.13.24.19.52.18.79,0,.04,0,.07-.02.11-.03.07-.11.1-.17.14-.15.1-.25.28-.26.47,0,.07.01.15-.03.21-.06.11-.22.1-.34.06-.18-.06-.37-.17-.45-.34-.06-.13-.06-.29-.05-.44,0-.16.01-.32.02-.48,0-.17.01-.32.15-.42.15-.11.34-.21.51-.3Z"/>
    <path class="cls-1" d="m78.35,40.85c.06-.07.13-.09.21-.12.05-.01.09-.03.14-.04.1-.03.19-.07.28-.11.09-.04.18-.08.27-.12.04-.02.08-.03.11-.05,0,0,0,0,0,0,.04-.03.08-.04.13-.05.07-.01.14.03.18.09.06.08.05.18.01.26-.03.07-.09.11-.15.15-.1.07-.22.12-.33.18-.1.05-.2.09-.3.13-.12.05-.29.13-.42.1-.09-.02-.16-.08-.2-.17-.03-.08-.01-.19.05-.25Z"/>
    <path class="cls-1" d="m71.33,44.11c.03-.07.1-.11.17-.12.12-.01.23.03.34.08.09.03.17.09.25.13.18.1.34.22.5.35.12.09.14.29.04.41-.11.12-.28.14-.41.04-.18-.14-.37-.28-.57-.4-.11-.07-.24-.15-.31-.27-.04-.07-.05-.14-.02-.21Z"/>
  </g>
  <g>
    <path class="cls-1" d="m76.66,40.56c-.09-.03-.19-.18-.22-.68-.34.06-.66.25-.87.53-.03.04-.05.07-.05.12,0,.1.09.17.15.24.22.28.06.78.36.97.27-.25.51-.54.71-.86.04-.09.08-.2.03-.27-.03-.04-.08-.05-.11-.06Z"/>
    <path class="cls-1" d="m76.19,47.46c0,.13.1.25.23.27.22.04.41-.26.3-.45-.14-.25-.53-.09-.53.18Z"/>
    <path class="cls-1" d="m80.55,51.55c-.19.1-.38.22-.54.36-.05.04-.1.09-.1.16-.01.1.08.18.16.23.09.06.18.1.28.14.03.01.07.03.11.02.03,0,.06-.02.09-.04.09-.05.17-.11.26-.16.26-.16.02-.24-.06-.4-.05-.1.01-.41-.19-.31Z"/>
    <path class="cls-1" d="m81.9,44.96s-.08-.07-.13-.08c-.13-.04-.27.06-.36.16-.18.2-.3.46-.35.72,0,.04-.01.07,0,.11.02.07.08.13.13.18.13.13.18.33.14.51-.02.07-.04.14-.02.21.04.12.19.15.31.14.19-.01.39-.08.51-.23.09-.12.12-.27.15-.41.03-.16.06-.31.1-.47.03-.17.06-.31-.05-.45-.12-.15-.29-.28-.43-.41Z"/>
    <path class="cls-1" d="m77.49,44.46c-.04-.08-.1-.12-.18-.16-.04-.02-.08-.05-.13-.08-.09-.05-.17-.11-.25-.17-.08-.06-.16-.12-.23-.18-.03-.03-.07-.05-.1-.07,0,0,0,0,0,0-.03-.04-.07-.06-.11-.07-.07-.03-.14,0-.2.04-.08.06-.09.16-.07.25.02.07.06.13.11.18.08.09.18.17.28.25.08.07.17.13.26.2.11.07.25.2.38.19.09,0,.18-.04.23-.12.05-.07.06-.18.01-.26Z"/>
    <path class="cls-1" d="m83.55,49.26c-.02-.07-.07-.13-.14-.15-.12-.04-.23-.02-.35,0-.09.01-.18.05-.27.07-.2.06-.39.14-.57.22-.14.06-.2.25-.13.39.08.14.24.2.39.13.21-.1.43-.18.65-.26.13-.04.27-.09.37-.19.05-.05.08-.12.07-.2Z"/>
  </g>
  <g>
    <path class="cls-1" d="m6.75,42.82c-.05.02-.15-.02-.32-.24-.14.14-.22.33-.23.52,0,.02,0,.05.01.07.03.05.09.05.15.06.19.06.28.34.48.33.05-.2.06-.41.05-.62,0-.05-.03-.12-.07-.14-.03,0-.05,0-.07,0Z"/>
    <path class="cls-1" d="m8.76,46.15c.04.06.13.08.19.05.12-.05.1-.25,0-.3-.15-.07-.27.13-.19.25Z"/>
    <path class="cls-1" d="m12.09,46.63c-.06.11-.1.22-.13.34,0,.04-.02.07,0,.11.03.05.09.06.15.05.06,0,.12-.01.17-.03.02,0,.04-.01.06-.03.01-.01.02-.03.03-.05.02-.05.05-.1.07-.16.07-.16-.07-.11-.16-.16-.05-.03-.13-.19-.19-.09Z"/>
    <path class="cls-1" d="m10.59,43.16s-.06,0-.09,0c-.07.02-.11.11-.11.19-.02.15,0,.31.07.45,0,.02.02.04.03.05.03.03.08.03.12.04.1.02.19.1.23.19.02.04.03.08.06.11.06.04.14,0,.19-.04.08-.07.16-.16.16-.27,0-.08-.03-.16-.06-.24-.04-.08-.07-.16-.11-.25-.04-.09-.07-.16-.17-.19-.1-.03-.22-.04-.33-.05Z"/>
    <path class="cls-1" d="m8.39,44.35s-.09-.02-.13-.02c-.03,0-.05,0-.08,0-.06,0-.11,0-.17,0-.05,0-.11,0-.16,0-.02,0-.05,0-.07,0,0,0,0,0,0,0-.03,0-.05,0-.07,0-.04,0-.07.05-.08.08-.02.05,0,.1.05.14.03.03.07.04.11.05.07.02.14.02.21.03.06,0,.12,0,.18,0,.07,0,.18,0,.24-.03.04-.03.07-.07.07-.13,0-.05-.03-.1-.08-.12Z"/>
    <path class="cls-1" d="m12.74,44.61s-.07-.04-.11-.03c-.07.02-.12.07-.16.11-.04.04-.07.08-.1.12-.07.09-.13.19-.19.29-.04.07-.01.18.07.22.08.04.17.01.22-.07.07-.11.14-.22.21-.33.05-.06.1-.13.11-.21,0-.04,0-.08-.03-.11Z"/>
  </g>
  <g>
    <path class="cls-1" d="m14.03,46.71c-.05.02-.15-.02-.32-.24-.14.14-.22.33-.23.52,0,.02,0,.05.01.07.03.05.09.05.15.06.19.06.28.34.48.33.05-.2.06-.41.05-.62,0-.05-.03-.12-.07-.14-.03,0-.05,0-.07,0Z"/>
    <path class="cls-1" d="m16.04,50.04c.04.06.13.08.19.05.12-.05.1-.25,0-.3-.15-.07-.27.13-.19.25Z"/>
    <path class="cls-1" d="m19.37,50.53c-.06.11-.1.22-.13.34,0,.04-.02.07,0,.11.03.05.09.06.15.05.06,0,.12-.01.17-.03.02,0,.04-.01.06-.03.01-.01.02-.03.03-.05.02-.05.05-.1.07-.16.07-.16-.07-.11-.16-.16-.05-.03-.13-.19-.19-.09Z"/>
    <path class="cls-1" d="m17.87,47.05s-.06,0-.09,0c-.07.02-.11.11-.11.19-.02.15,0,.31.07.45,0,.02.02.04.03.05.03.03.08.03.12.04.1.02.19.1.23.19.02.04.03.08.06.11.06.04.14,0,.19-.04.08-.07.16-.16.16-.27,0-.08-.03-.16-.06-.24-.04-.08-.07-.16-.11-.25-.04-.09-.07-.16-.17-.19-.1-.03-.22-.04-.33-.05Z"/>
    <path class="cls-1" d="m15.67,48.24s-.09-.02-.13-.02c-.03,0-.05,0-.08,0-.06,0-.11,0-.17,0-.05,0-.11,0-.16,0-.02,0-.05,0-.07,0,0,0,0,0,0,0-.03,0-.05,0-.07,0-.04,0-.07.05-.08.08-.02.05,0,.1.05.14.03.03.07.04.11.05.07.02.14.02.21.03.06,0,.12,0,.18,0,.07,0,.18,0,.24-.03.04-.03.07-.07.07-.13,0-.05-.03-.1-.08-.12Z"/>
    <path class="cls-1" d="m20.02,48.5s-.07-.04-.11-.03c-.07.02-.12.07-.16.11-.04.04-.07.08-.1.12-.07.09-.13.19-.19.29-.04.07-.01.18.07.22.08.04.17.01.22-.07.07-.11.14-.22.21-.33.05-.06.1-.13.11-.21,0-.04,0-.08-.03-.11Z"/>
  </g>
  <g>
    <path class="cls-1" d="m14.42,42.45c-.05.02-.15-.02-.32-.24-.14.14-.22.33-.23.52,0,.02,0,.05.01.07.03.05.09.05.15.06.19.06.28.34.48.33.05-.2.06-.41.05-.62,0-.05-.03-.12-.07-.14-.03,0-.05,0-.07,0Z"/>
    <path class="cls-1" d="m16.43,45.79c.04.06.13.08.19.05.12-.05.1-.25,0-.3-.15-.07-.27.13-.19.25Z"/>
    <path class="cls-1" d="m19.76,46.27c-.06.11-.1.22-.13.34,0,.04-.02.07,0,.11.03.05.09.06.15.05.06,0,.12-.01.17-.03.02,0,.04-.01.06-.03.01-.01.02-.03.03-.05.02-.05.05-.1.07-.16.07-.16-.07-.11-.16-.16-.05-.03-.13-.19-.19-.09Z"/>
    <path class="cls-1" d="m18.26,42.79s-.06,0-.09,0c-.07.02-.11.11-.11.19-.02.15,0,.31.07.45,0,.02.02.04.03.05.03.03.08.03.12.04.1.02.19.1.23.19.02.04.03.08.06.11.06.04.14,0,.19-.04.08-.07.16-.16.16-.27,0-.08-.03-.16-.06-.24-.04-.08-.07-.16-.11-.25-.04-.09-.07-.16-.17-.19-.1-.03-.22-.04-.33-.05Z"/>
    <path class="cls-1" d="m16.06,43.99s-.09-.02-.13-.02c-.03,0-.05,0-.08,0-.06,0-.11,0-.17,0-.05,0-.11,0-.16,0-.02,0-.05,0-.07,0,0,0,0,0,0,0-.03,0-.05,0-.07,0-.04,0-.07.05-.08.08-.02.05,0,.1.05.14.03.03.07.04.11.05.07.02.14.02.21.03.06,0,.12,0,.18,0,.07,0,.18,0,.24-.03.04-.03.07-.07.07-.13,0-.05-.03-.1-.08-.12Z"/>
    <path class="cls-1" d="m20.41,44.25s-.07-.04-.11-.03c-.07.02-.12.07-.16.11-.04.04-.07.08-.1.12-.07.09-.13.19-.19.29-.04.07-.01.18.07.22.08.04.17.01.22-.07.07-.11.14-.22.21-.33.05-.06.1-.13.11-.21,0-.04,0-.08-.03-.11Z"/>
  </g>
  <g>
    <path class="cls-1" d="m22.52,43.51s.06-.13-.02-.4c.19-.04.4,0,.56.1.02.01.04.03.05.05.02.05-.01.11-.03.16-.06.19.13.42.01.58-.2-.08-.38-.18-.55-.3-.04-.04-.09-.09-.07-.14,0-.03.03-.04.04-.05Z"/>
    <path class="cls-1" d="m24.18,47.03c.03.07,0,.15-.06.19-.11.07-.27-.05-.25-.17.02-.16.26-.16.31-.02Z"/>
    <path class="cls-1" d="m22.74,50.07c.12.01.24.04.36.08.03.01.07.03.09.06.03.05,0,.11-.04.15-.04.05-.08.09-.12.13-.02.01-.03.03-.05.03-.02,0-.04,0-.05,0-.06,0-.11-.02-.17-.03-.17-.03-.06-.12-.05-.22,0-.06-.09-.21.03-.2Z"/>
    <path class="cls-1" d="m20.67,46.89s.03-.05.05-.07c.06-.05.15-.03.22.01.14.07.25.18.33.31.01.02.02.04.02.05,0,.04-.02.08-.03.12-.04.1-.03.21.03.3.02.03.05.07.06.11,0,.07-.07.12-.14.14-.1.03-.22.04-.32-.01-.07-.04-.12-.11-.17-.18-.05-.08-.1-.15-.15-.23-.05-.08-.1-.15-.07-.24.03-.1.09-.21.14-.3Z"/>
    <path class="cls-1" d="m22.88,45.72c0-.05.03-.08.06-.12.02-.02.03-.04.05-.07.03-.05.07-.09.1-.14.03-.05.06-.09.09-.14.01-.02.02-.04.04-.06,0,0,0,0,0,0,0-.03.02-.04.04-.06.03-.03.08-.03.11-.02.05.02.08.07.09.12,0,.04,0,.08-.02.12-.02.06-.06.13-.09.19-.03.05-.06.11-.1.16-.04.06-.09.15-.16.18-.05.02-.1.02-.15-.01-.04-.03-.07-.08-.06-.13Z"/>
    <path class="cls-1" d="m20.69,49.49s0-.08.04-.11c.05-.05.12-.06.18-.08.05-.01.11-.01.16-.02.11,0,.23,0,.34,0,.09,0,.16.09.15.18-.01.09-.09.15-.18.15-.13,0-.26,0-.39,0-.08,0-.16,0-.23-.03-.04-.02-.07-.05-.07-.09Z"/>
  </g>
  <g>
    <path class="cls-1" d="m22.01,46.13c-.05.02-.15-.02-.32-.24-.14.14-.22.33-.23.52,0,.02,0,.05.01.07.03.05.09.05.15.06.19.06.28.34.48.33.05-.2.06-.41.05-.62,0-.05-.03-.12-.07-.14-.03,0-.05,0-.07,0Z"/>
    <path class="cls-1" d="m24.02,49.46c.04.06.13.08.19.05.12-.05.1-.25,0-.3-.15-.07-.27.13-.19.25Z"/>
    <path class="cls-1" d="m27.35,49.95c-.06.11-.1.22-.13.34,0,.04-.02.07,0,.11.03.05.09.06.15.05.06,0,.12-.01.17-.03.02,0,.04-.01.06-.03.01-.01.02-.03.03-.05.02-.05.05-.1.07-.16.07-.16-.07-.11-.16-.16-.05-.03-.13-.19-.19-.09Z"/>
    <path class="cls-1" d="m25.85,46.47s-.06,0-.09,0c-.07.02-.11.11-.11.19-.02.15,0,.31.07.45,0,.02.02.04.03.05.03.03.08.03.12.04.1.02.19.1.23.19.02.04.03.08.06.11.06.04.14,0,.19-.04.08-.07.16-.16.16-.27,0-.08-.03-.16-.06-.24-.04-.08-.07-.16-.11-.25-.04-.09-.07-.16-.17-.19-.1-.03-.22-.04-.33-.05Z"/>
    <path class="cls-1" d="m23.65,47.66s-.09-.02-.13-.02c-.03,0-.05,0-.08,0-.06,0-.11,0-.17,0-.05,0-.11,0-.16,0-.02,0-.05,0-.07,0,0,0,0,0,0,0-.03,0-.05,0-.07,0-.04,0-.07.05-.08.08-.02.05,0,.1.05.14.03.03.07.04.11.05.07.02.14.02.21.03.06,0,.12,0,.18,0,.07,0,.18,0,.24-.03.04-.03.07-.07.07-.13,0-.05-.03-.1-.08-.12Z"/>
    <path class="cls-1" d="m27.99,47.93s-.07-.04-.11-.03c-.07.02-.12.07-.16.11-.04.04-.07.08-.1.12-.07.09-.13.19-.19.29-.04.07-.01.18.07.22.08.04.17.01.22-.07.07-.11.14-.22.21-.33.05-.06.1-.13.11-.21,0-.04,0-.08-.03-.11Z"/>
  </g>
  <g>
    <path class="cls-1" d="m50.57,86.65s.01.15-.17.37c.16.11.37.15.56.11.02,0,.05-.01.07-.03.04-.04.03-.1.03-.16.01-.2.27-.35.22-.54-.21,0-.42.03-.62.09-.05.02-.11.05-.12.1,0,.03.01.05.02.06Z"/>
    <path class="cls-1" d="m53.38,83.96c.05-.05.05-.14,0-.2-.08-.1-.27-.05-.29.07-.04.16.19.24.29.13Z"/>
    <path class="cls-1" d="m53.12,80.6c.12.03.24.05.36.05.04,0,.08,0,.1-.02.04-.04.04-.1.02-.16-.02-.06-.04-.11-.06-.16,0-.02-.02-.04-.04-.05-.01,0-.03-.01-.05-.02-.06-.01-.11-.02-.17-.03-.17-.03-.1.09-.12.19-.02.06-.16.17-.04.2Z"/>
    <path class="cls-1" d="m50.06,82.83s0,.06.02.08c.04.07.13.08.21.07.15-.02.3-.08.42-.17.02-.01.03-.03.04-.04.02-.04.01-.08.01-.13,0-.1.05-.21.14-.27.03-.02.07-.04.09-.08.03-.06-.02-.13-.08-.18-.08-.07-.19-.12-.3-.1-.08.01-.15.06-.22.11-.07.05-.14.11-.22.16-.08.06-.14.11-.15.2,0,.11.01.23.02.33Z"/>
    <path class="cls-1" d="m51.7,84.71s0,.09.01.13c0,.03.02.05.02.08.02.05.03.11.04.17.01.05.02.11.03.16,0,.02,0,.05.01.07,0,0,0,0,0,0,0,.03,0,.05.02.07.02.04.06.06.1.06.05,0,.1-.03.13-.08.02-.04.02-.08.02-.12,0-.07-.01-.14-.02-.21,0-.06-.02-.12-.03-.18-.02-.07-.03-.18-.09-.22-.04-.03-.09-.05-.14-.04-.05.01-.09.05-.1.1Z"/>
    <path class="cls-1" d="m51.01,80.41s-.02.08,0,.12c.03.06.09.1.14.14.04.03.09.05.14.07.1.05.21.09.32.13.08.03.18-.03.2-.11.02-.09-.03-.17-.11-.2-.12-.04-.25-.09-.37-.14-.07-.03-.15-.06-.22-.06-.04,0-.08.02-.1.06Z"/>
  </g>
  <g>
    <path class="cls-1" d="m52.77,78.69s.01.15-.17.37c.16.11.37.15.56.11.02,0,.05-.01.07-.03.04-.04.03-.1.03-.16.01-.2.27-.35.22-.54-.21,0-.42.03-.62.09-.05.02-.11.05-.12.1,0,.03.01.05.02.06Z"/>
    <path class="cls-1" d="m55.58,76c.05-.05.05-.14,0-.2-.08-.1-.27-.05-.29.07-.04.16.19.24.29.13Z"/>
    <path class="cls-1" d="m55.32,72.64c.12.03.24.05.36.05.04,0,.08,0,.1-.02.04-.04.04-.1.02-.16-.02-.06-.04-.11-.06-.16,0-.02-.02-.04-.04-.05-.01,0-.03-.01-.05-.02-.06-.01-.11-.02-.17-.03-.17-.03-.1.09-.12.19-.02.06-.16.17-.04.2Z"/>
    <path class="cls-1" d="m52.26,74.87s0,.06.02.08c.04.07.13.08.21.07.15-.02.3-.08.42-.17.02-.01.03-.03.04-.04.02-.04.01-.08.01-.13,0-.1.05-.21.14-.27.03-.02.07-.04.09-.08.03-.06-.02-.13-.08-.18-.08-.07-.19-.12-.3-.1-.08.01-.15.06-.22.11-.07.05-.14.11-.22.16-.08.06-.14.11-.15.2,0,.11.01.23.02.33Z"/>
    <path class="cls-1" d="m53.9,76.75s0,.09.01.13c0,.03.02.05.02.08.02.05.03.11.04.17.01.05.02.11.03.16,0,.02,0,.05.01.07,0,0,0,0,0,0,0,.03,0,.05.02.07.02.04.06.06.1.06.05,0,.1-.03.13-.08.02-.04.02-.08.02-.12,0-.07-.01-.14-.02-.21,0-.06-.02-.12-.03-.18-.02-.07-.03-.18-.09-.22-.04-.03-.09-.05-.14-.04-.05.01-.09.05-.1.1Z"/>
    <path class="cls-1" d="m53.21,72.46s-.02.08,0,.12c.03.06.09.1.14.14.04.03.09.05.14.07.1.05.21.09.32.13.08.03.18-.03.2-.11.02-.09-.03-.17-.11-.2-.12-.04-.25-.09-.37-.14-.07-.03-.15-.06-.22-.06-.04,0-.08.02-.1.06Z"/>
  </g>
  <g>
    <path class="cls-1" d="m48.53,79.24s.01.15-.17.37c.16.11.37.15.56.11.02,0,.05-.01.07-.03.04-.04.03-.1.03-.16.01-.2.27-.35.22-.54-.21,0-.42.03-.62.09-.05.02-.11.05-.12.1,0,.03.01.05.02.06Z"/>
    <path class="cls-1" d="m51.34,76.55c.05-.05.05-.14,0-.2-.08-.1-.27-.05-.29.07-.04.16.19.24.29.13Z"/>
    <path class="cls-1" d="m51.09,73.2c.12.03.24.05.36.05.04,0,.08,0,.1-.02.04-.04.04-.1.02-.16-.02-.06-.04-.11-.06-.16,0-.02-.02-.04-.04-.05-.01,0-.03-.01-.05-.02-.06-.01-.11-.02-.17-.03-.17-.03-.1.09-.12.19-.02.06-.16.17-.04.2Z"/>
    <path class="cls-1" d="m48.02,75.43s0,.06.02.08c.04.07.13.08.21.07.15-.02.3-.08.42-.17.02-.01.03-.03.04-.04.02-.04.01-.08.01-.13,0-.1.05-.21.14-.27.03-.02.07-.04.09-.08.03-.06-.02-.13-.08-.18-.08-.07-.19-.12-.3-.1-.08.01-.15.06-.22.11-.07.05-.14.11-.22.16-.08.06-.14.11-.15.2,0,.11.01.23.02.33Z"/>
    <path class="cls-1" d="m49.67,77.31s0,.09.01.13c0,.03.02.05.02.08.02.05.03.11.04.17.01.05.02.11.03.16,0,.02,0,.05.01.07,0,0,0,0,0,0,0,.03,0,.05.02.07.02.04.06.06.1.06.05,0,.1-.03.13-.08.02-.04.02-.08.02-.12,0-.07-.01-.14-.02-.21,0-.06-.02-.12-.03-.18-.02-.07-.03-.18-.09-.22-.04-.03-.09-.05-.14-.04-.05.01-.09.05-.1.1Z"/>
    <path class="cls-1" d="m48.97,73.01s-.02.08,0,.12c.03.06.09.1.14.14.04.03.09.05.14.07.1.05.21.09.32.13.08.03.18-.03.2-.11.02-.09-.03-.17-.11-.2-.12-.04-.25-.09-.37-.14-.07-.03-.15-.06-.22-.06-.04,0-.08.02-.1.06Z"/>
  </g>
  <g>
    <path class="cls-1" d="m47.79,71.12s-.14-.03-.39.11c-.08-.18-.09-.39-.02-.57,0-.02.02-.05.04-.06.04-.03.11-.01.16,0,.2.02.38-.22.57-.14-.03.21-.09.41-.18.6-.03.05-.07.1-.12.1-.03,0-.05-.02-.06-.03Z"/>
    <path class="cls-1" d="m50.85,68.72c.06-.04.15-.03.2.02.09.09,0,.27-.11.28-.16.01-.21-.22-.08-.3Z"/>
    <path class="cls-1" d="m54.14,69.46c-.02-.12-.02-.25,0-.37,0-.04.01-.07.04-.1.04-.04.11-.02.16,0,.05.02.11.05.15.09.02.01.03.03.04.04,0,.02,0,.03,0,.05,0,.06,0,.11,0,.17,0,.17-.11.08-.2.1-.06,0-.19.13-.21.01Z"/>
    <path class="cls-1" d="m51.49,72.17s-.06-.02-.08-.03c-.06-.05-.06-.14-.04-.22.04-.15.12-.29.23-.39.01-.01.03-.03.05-.04.04-.02.08,0,.13,0,.1.02.21-.02.28-.1.03-.03.05-.07.09-.08.07-.02.13.04.17.1.05.09.09.21.06.31-.02.08-.08.14-.14.2-.06.06-.13.13-.19.19-.07.07-.12.13-.22.12-.11-.01-.22-.04-.33-.07Z"/>
    <path class="cls-1" d="m49.87,70.27c-.05,0-.09,0-.13-.03-.02-.01-.05-.02-.07-.03-.05-.02-.1-.04-.16-.06-.05-.02-.1-.04-.16-.05-.02,0-.04-.02-.07-.02,0,0,0,0,0,0-.03,0-.05-.01-.07-.03-.03-.02-.05-.07-.04-.11,0-.05.05-.09.09-.11.04-.01.08-.01.12,0,.07,0,.14.03.2.05.06.02.12.04.17.06.07.03.17.05.21.12.03.04.04.09.02.14-.02.05-.06.08-.12.09Z"/>
    <path class="cls-1" d="m54.02,71.58s-.08,0-.12-.02c-.06-.04-.08-.1-.11-.16-.02-.05-.04-.1-.05-.15-.03-.11-.06-.22-.08-.34-.01-.08.05-.18.14-.18.09,0,.17.05.18.14.02.13.05.26.08.38.02.07.04.16.03.23,0,.04-.03.08-.07.09Z"/>
  </g>
  <g>
    <path class="cls-1" d="m50.46,71.03s.01.15-.17.37c.16.11.37.15.56.11.02,0,.05-.01.07-.03.04-.04.03-.1.03-.16.01-.2.27-.35.22-.54-.21,0-.42.03-.62.09-.05.02-.11.05-.12.1,0,.03.01.05.02.06Z"/>
    <path class="cls-1" d="m53.27,68.34c.05-.05.05-.14,0-.2-.08-.1-.27-.05-.29.07-.04.16.19.24.29.13Z"/>
    <path class="cls-1" d="m53.01,64.99c.12.03.24.05.36.05.04,0,.08,0,.1-.02.04-.04.04-.1.02-.16-.02-.06-.04-.11-.06-.16,0-.02-.02-.04-.04-.05-.01,0-.03-.01-.05-.02-.06-.01-.11-.02-.17-.03-.17-.03-.1.09-.12.19-.02.06-.16.17-.04.2Z"/>
    <path class="cls-1" d="m49.95,67.22s0,.06.02.08c.04.07.13.08.21.07.15-.02.3-.08.42-.17.02-.01.03-.03.04-.04.02-.04.01-.08.01-.13,0-.1.05-.21.14-.27.03-.02.07-.04.09-.08.03-.06-.02-.13-.08-.18-.08-.07-.19-.12-.3-.1-.08.01-.15.06-.22.11-.07.05-.14.11-.22.16-.08.06-.14.11-.15.2,0,.11.01.23.02.33Z"/>
    <path class="cls-1" d="m51.59,69.1s0,.09.01.13c0,.03.02.05.02.08.02.05.03.11.04.17.01.05.02.11.03.16,0,.02,0,.05.01.07,0,0,0,0,0,0,0,.03,0,.05.02.07.02.04.06.06.1.06.05,0,.1-.03.13-.08.02-.04.02-.08.02-.12,0-.07-.01-.14-.02-.21,0-.06-.02-.12-.03-.18-.02-.07-.03-.18-.09-.22-.04-.03-.09-.05-.14-.04-.05.01-.09.05-.1.1Z"/>
    <path class="cls-1" d="m50.89,64.8s-.02.08,0,.12c.03.06.09.1.14.14.04.03.09.05.14.07.1.05.21.09.32.13.08.03.18-.03.2-.11.02-.09-.03-.17-.11-.2-.12-.04-.25-.09-.37-.14-.07-.03-.15-.06-.22-.06-.04,0-.08.02-.1.06Z"/>
  </g>
</svg>