<?xml version="1.0" encoding="UTF-8"?>
<svg id="_Ñëîé_1" data-name="Ñëîé 1" xmlns="http://www.w3.org/2000/svg" viewBox="0 0 95 95">
  <defs>
    <style>
      .cls-1 {
        fill: #fcebb6;
      }
    </style>
  </defs>
  <g>
    <path class="cls-1" d="m69.77,60.07c0,.06-.01.12-.02.19,0,0,.01,0,.02,0v-.19Z"/>
    <path class="cls-1" d="m60.16,54.98c0,.06,0,.13,0,.19,0,0,0,0,0,0v-.19Z"/>
    <path class="cls-1" d="m28.87,65.84c-.06-.16-.13-.33-.21-.49,0,.23.09.38.21.49Z"/>
    <path class="cls-1" d="m23.38,69.31c-.07.4-.04.74.04,1.03.04-.35.02-.69-.04-1.03Z"/>
    <path class="cls-1" d="m15.65,75.91c.17.37.45.72.81,1.02.02-.55-.18-1.02-.81-1.02Z"/>
    <path class="cls-1" d="m51.62,83.36c-1.44-.97-3.83-.31-4.78-1.91-.92-1.41,2.49-1.43,2.88-2.99-1.38-.41-2.38-.86-3.09-2.11-.57-1.64-.18-3.21.79-4.65l.75-.09c-1.15-1.76-4.42-2.14-3.38-4.54.27-.98,1.53-1.51,2.01-2.32-.94.11-1.59-.58-2-.91-1.07-1.01.4-3.08,1.83-3.82-.96-.08-1.54-.2-1.84-1.12-.11-.33-.23-.68-.33-1.05-.37.07-.75.13-1.13.18-1.74.2-3.43.08-5.03-.32.21,1.14.07,2.19-.68,2.97-1.32,1.67-2.9-2.13-5.07-2.83-.1.77-1.12.13-1.35-.22-.06,1.14.49,2.59-.72,3.49.25.98.23,1.96-.24,2.88-.12.15-.61.24-.92.03,1.02,2.04.36,4.48-1.25,5.73-1.16.76-3.07.7-3.64-.63.02,1.59-1.03,3.22-2.89,3.28,1.35.22.7,2.77.6,3.54-.41,1.53-2.52,1.41-3.87.52.05.61-.16,1.35-.43,1.68-.46.52-.98.91-1.53,1.21,2.68,1.46,5.26,2.49,7.53,3.39,4.85,1.93,12.53,4.88,22.7,4.02.42-.04,1.09-.1,1.95-.22-.6-1.37,1.53-2.7,3.15-3.22Z"/>
    <path class="cls-1" d="m30.36,63.09s0,0,.01,0c-.04-.31-.11-.62-.2-.94-.38.38.19.57.19.94Z"/>
    <path class="cls-1" d="m16.46,72.26c-.35-.29-.64-.64-.81-1.02.63,0,.83.47.81,1.02,1.24,1.03,3.32,1.4,3.91-.07.19-.75,1.13-3.21-.19-3.58,1.86.15,3.08-1.34,3.25-2.93-.09-.29-.11-.64-.04-1.03.07.34.08.69.04,1.03.41,1.39,2.29,1.66,3.54,1.04,1.75-1.05,2.69-3.4,1.91-5.54-.12-.11-.21-.26-.21-.49.08.16.15.32.21.49.29.25.79.21.92.08.58-.86.71-1.84.58-2.83,0,0,0,0-.01,0,0-.38-.57-.57-.19-.94.09.31.16.63.2.94,1.31-.76.93-2.26,1.12-3.39.19.38,1.13,1.13,1.32.38,2.07.94,3.21,4.9,4.71,3.39.84-.69,1.09-1.72,1.02-2.87-4.54-1.7-7.97-5.67-8.92-10.53-.29-.26-.56-.57-.79-.93.19,1.32-1.32,1.51-2.07,1.7-2.07.19-4.71-.38-5.66-2.64,0,1.13-1.32,1.7-2.26,1.89s-1.89.19-2.26-.94c.19,3.21-3.77,3.02-5.84,2.45-1.7-.38-2.45-2.64-3.39-2.83-2.4-.17-4.49,2.47-7.12,2.94-.24,4.86-.27,5.28-.12,6.4.83,6.33,3.99,10.82,5.8,13.33,2.58,3.57,5.46,6.15,8.28,8.15.59-.23,1.15-.56,1.66-1.02.3-.3.6-1.01.62-1.62Z"/>
  </g>
  <g>
    <path class="cls-1" d="m2.61,33.63c-.07.02-.19-.02-.42-.31-.18.18-.29.43-.29.68,0,.03,0,.06.02.09.04.06.12.06.19.08.25.07.36.44.62.43.06-.26.08-.54.07-.81-.01-.07-.04-.16-.1-.18-.04-.01-.07,0-.09,0Z"/>
    <path class="cls-1" d="m5.22,37.95c.05.08.17.11.25.07.15-.07.14-.32,0-.39-.19-.09-.35.17-.24.33Z"/>
    <path class="cls-1" d="m9.53,38.58c-.08.14-.13.29-.17.44-.01.05-.02.1,0,.14.03.06.12.07.19.07.08,0,.15-.02.23-.04.03,0,.05-.02.07-.03.02-.02.03-.04.04-.06.03-.07.06-.13.09-.2.09-.2-.09-.15-.2-.21-.07-.04-.17-.25-.24-.11Z"/>
    <path class="cls-1" d="m7.59,34.07s-.07,0-.11,0c-.1.03-.14.15-.15.25-.02.2.01.4.09.58.01.02.02.05.04.07.04.04.1.04.16.05.13.03.25.12.3.25.02.05.03.11.08.14.07.06.18,0,.25-.05.11-.09.2-.21.21-.35,0-.11-.04-.21-.08-.31-.05-.11-.09-.21-.14-.32-.05-.12-.09-.21-.22-.25-.13-.04-.29-.05-.43-.06Z"/>
    <path class="cls-1" d="m4.74,35.61c-.06-.03-.11-.03-.17-.02-.04,0-.07,0-.11,0-.07,0-.15,0-.22,0-.07,0-.14,0-.21,0-.03,0-.06,0-.09,0,0,0,0,0,0,0-.03,0-.06,0-.1,0-.05.01-.09.06-.1.11-.02.07.01.14.06.18.04.04.09.05.14.06.09.02.18.03.27.03.08,0,.16,0,.24,0,.09,0,.23.01.31-.04.06-.04.09-.1.09-.17,0-.07-.04-.13-.1-.16Z"/>
    <path class="cls-1" d="m10.37,35.95s-.1-.05-.15-.03c-.09.02-.15.08-.21.14-.05.05-.09.1-.13.16-.09.12-.17.24-.25.37-.06.1-.02.24.08.29.11.05.23.02.29-.08.09-.15.18-.29.28-.43.06-.08.12-.17.14-.27,0-.05,0-.11-.04-.15Z"/>
  </g>
  <g>
    <path class="cls-1" d="m12.06,38.68c-.07.02-.19-.02-.42-.31-.18.18-.29.43-.29.68,0,.03,0,.06.02.09.04.06.12.06.19.08.25.07.36.44.62.43.06-.26.08-.54.07-.81-.01-.07-.04-.16-.1-.18-.04-.01-.07,0-.09,0Z"/>
    <path class="cls-1" d="m14.66,43c.05.08.17.11.25.07.15-.07.14-.32,0-.39-.19-.09-.35.17-.24.33Z"/>
    <path class="cls-1" d="m18.98,43.63c-.08.14-.13.29-.17.44-.01.05-.02.1,0,.14.03.06.12.07.19.07.08,0,.15-.02.23-.04.03,0,.05-.02.07-.03.02-.02.03-.04.04-.06.03-.07.06-.13.09-.2.09-.2-.09-.15-.2-.21-.07-.04-.17-.25-.24-.11Z"/>
    <path class="cls-1" d="m17.03,39.12s-.07,0-.11,0c-.1.03-.14.15-.15.25-.02.2.01.4.09.58.01.02.02.05.04.07.04.04.1.04.16.05.13.03.25.12.3.25.02.05.03.11.08.14.07.06.18,0,.25-.05.11-.09.2-.21.21-.35,0-.11-.04-.21-.08-.31-.05-.11-.09-.21-.14-.32-.05-.12-.09-.21-.22-.25-.13-.04-.29-.05-.43-.06Z"/>
    <path class="cls-1" d="m14.18,40.66c-.06-.03-.11-.03-.17-.02-.04,0-.07,0-.11,0-.07,0-.15,0-.22,0-.07,0-.14,0-.21,0-.03,0-.06,0-.09,0,0,0,0,0,0,0-.03,0-.06,0-.1,0-.05.01-.09.06-.1.11-.02.07.01.14.06.18.04.04.09.05.14.06.09.02.18.03.27.03.08,0,.16,0,.24,0,.09,0,.23.01.31-.04.06-.04.09-.1.09-.17,0-.07-.04-.13-.1-.16Z"/>
    <path class="cls-1" d="m19.82,41s-.1-.05-.15-.03c-.09.02-.15.08-.21.14-.05.05-.09.1-.13.16-.09.12-.17.24-.25.37-.06.1-.02.24.08.29.11.05.23.02.29-.08.09-.15.18-.29.28-.43.06-.08.12-.17.14-.27,0-.05,0-.11-.04-.15Z"/>
  </g>
  <g>
    <path class="cls-1" d="m12.56,33.16c-.07.02-.19-.02-.42-.31-.18.18-.29.43-.29.68,0,.03,0,.06.02.09.04.06.12.06.19.08.25.07.36.44.62.43.06-.26.08-.54.07-.81-.01-.07-.04-.16-.1-.18-.04-.01-.07,0-.09,0Z"/>
    <path class="cls-1" d="m15.16,37.48c.05.08.17.11.25.07.15-.07.14-.32,0-.39-.19-.09-.35.17-.24.33Z"/>
    <path class="cls-1" d="m19.48,38.11c-.08.14-.13.29-.17.44-.01.05-.02.1,0,.14.03.06.12.07.19.07.08,0,.15-.02.23-.04.03,0,.05-.02.07-.03.02-.02.03-.04.04-.06.03-.07.06-.13.09-.2.09-.2-.09-.15-.2-.21-.07-.04-.17-.25-.24-.11Z"/>
    <path class="cls-1" d="m17.53,33.6s-.07,0-.11,0c-.1.03-.14.15-.15.25-.02.2.01.4.09.58.01.02.02.05.04.07.04.04.1.04.16.05.13.03.25.12.3.25.02.05.03.11.08.14.07.06.18,0,.25-.05.11-.09.2-.21.21-.35,0-.11-.04-.21-.08-.31-.05-.11-.09-.21-.14-.32-.05-.12-.09-.21-.22-.25-.13-.04-.29-.05-.43-.06Z"/>
    <path class="cls-1" d="m14.68,35.14c-.06-.03-.11-.03-.17-.02-.04,0-.07,0-.11,0-.07,0-.15,0-.22,0-.07,0-.14,0-.21,0-.03,0-.06,0-.09,0,0,0,0,0,0,0-.03,0-.06,0-.1,0-.05.01-.09.06-.1.11-.02.07.01.14.06.18.04.04.09.05.14.06.09.02.18.03.27.03.08,0,.16,0,.24,0,.09,0,.23.01.31-.04.06-.04.09-.1.09-.17,0-.07-.04-.13-.1-.16Z"/>
    <path class="cls-1" d="m20.32,35.48s-.1-.05-.15-.03c-.09.02-.15.08-.21.14-.05.05-.09.1-.13.16-.09.12-.17.24-.25.37-.06.1-.02.24.08.29.11.05.23.02.29-.08.09-.15.18-.29.28-.43.06-.08.12-.17.14-.27,0-.05,0-.11-.04-.15Z"/>
  </g>
  <g>
    <path class="cls-1" d="m23.05,34.52c.05-.05.08-.17-.03-.52.25-.05.52,0,.73.13.03.02.05.04.07.06.03.06-.01.14-.04.21-.08.25.17.55.02.76-.25-.1-.49-.23-.71-.39-.05-.05-.11-.12-.1-.18,0-.04.04-.05.06-.07Z"/>
    <path class="cls-1" d="m25.21,39.08c.03.09,0,.2-.08.25-.14.09-.34-.07-.32-.23.03-.21.34-.2.4-.02Z"/>
    <path class="cls-1" d="m23.35,43.03c.16.01.31.05.46.1.04.02.09.04.11.08.03.06,0,.14-.05.2-.05.06-.1.12-.15.17-.02.02-.04.04-.07.04-.02,0-.05,0-.07,0-.07-.01-.15-.03-.22-.04-.22-.04-.07-.16-.06-.29,0-.08-.12-.28.04-.26Z"/>
    <path class="cls-1" d="m20.67,38.91s.04-.07.06-.09c.08-.06.2-.03.29.01.18.09.33.23.43.4.01.02.03.05.03.07,0,.05-.02.11-.04.16-.05.12-.03.27.04.39.03.04.07.09.07.14,0,.09-.09.15-.18.18-.13.04-.29.05-.41-.02-.09-.05-.16-.15-.21-.24-.06-.1-.13-.19-.19-.29-.07-.11-.13-.19-.08-.32.04-.13.12-.27.18-.39Z"/>
    <path class="cls-1" d="m23.53,37.39c0-.07.04-.11.08-.16.02-.03.04-.06.07-.08.04-.06.09-.12.13-.18.04-.06.08-.12.11-.18.01-.03.03-.05.05-.08,0,0,0,0,0,0,.01-.03.03-.06.06-.08.04-.04.1-.04.15-.02.07.02.11.09.12.15,0,.05,0,.1-.02.15-.03.08-.08.16-.12.24-.04.07-.08.14-.12.2-.05.08-.12.2-.21.23-.06.02-.13.02-.19-.02-.05-.04-.09-.11-.08-.17Z"/>
    <path class="cls-1" d="m20.69,42.28c0-.05.01-.11.05-.14.07-.06.15-.08.24-.1.07-.02.14-.02.2-.02.15-.01.3-.01.45,0,.11,0,.21.12.19.23-.02.12-.11.2-.23.19-.17-.01-.34-.01-.51,0-.1,0-.21,0-.3-.03-.05-.02-.09-.06-.1-.12Z"/>
  </g>
  <g>
    <path class="cls-1" d="m22.4,37.93c-.07.02-.19-.02-.42-.31-.18.18-.29.43-.29.68,0,.03,0,.06.02.09.04.06.12.06.19.08.25.07.36.44.62.43.06-.26.08-.54.07-.81-.01-.07-.04-.16-.1-.18-.04-.01-.07,0-.09,0Z"/>
    <path class="cls-1" d="m25,42.25c.05.08.17.11.25.07.15-.07.14-.32,0-.39-.19-.09-.35.17-.24.33Z"/>
    <path class="cls-1" d="m29.32,42.88c-.08.14-.13.29-.17.44-.01.05-.02.1,0,.14.03.06.12.07.19.07.08,0,.15-.02.23-.04.03,0,.05-.02.07-.03.02-.02.03-.04.04-.06.03-.07.06-.13.09-.2.09-.2-.09-.15-.2-.21-.07-.04-.17-.25-.24-.11Z"/>
    <path class="cls-1" d="m27.37,38.37s-.07,0-.11,0c-.1.03-.14.15-.15.25-.02.2.01.4.09.58.01.02.02.05.04.07.04.04.1.04.16.05.13.03.25.12.3.25.02.05.03.11.08.14.07.06.18,0,.25-.05.11-.09.2-.21.21-.35,0-.11-.04-.21-.08-.31-.05-.11-.09-.21-.14-.32-.05-.12-.09-.21-.22-.25-.13-.04-.29-.05-.43-.06Z"/>
    <path class="cls-1" d="m24.52,39.91c-.06-.03-.11-.03-.17-.02-.04,0-.07,0-.11,0-.07,0-.15,0-.22,0-.07,0-.14,0-.21,0-.03,0-.06,0-.09,0,0,0,0,0,0,0-.03,0-.06,0-.1,0-.05.01-.09.06-.1.11-.02.07.01.14.06.18.04.04.09.05.14.06.09.02.18.03.27.03.08,0,.16,0,.24,0,.09,0,.23.01.31-.04.06-.04.09-.1.09-.17,0-.07-.04-.13-.1-.16Z"/>
    <path class="cls-1" d="m30.16,40.25s-.1-.05-.15-.03c-.09.02-.15.08-.21.14-.05.05-.09.1-.13.16-.09.12-.17.24-.25.37-.06.1-.02.24.08.29.11.05.23.02.29-.08.09-.15.18-.29.28-.43.06-.08.12-.17.14-.27,0-.05,0-.11-.04-.15Z"/>
  </g>
  <g>
    <path class="cls-1" d="m52.5,85.64c.04.06.02.2-.22.5.22.14.5.19.76.13.03,0,.07-.02.09-.04.05-.05.04-.14.04-.21.01-.27.36-.47.29-.73-.28,0-.56.05-.83.13-.07.03-.15.07-.16.14,0,.04.02.07.03.09Z"/>
    <path class="cls-1" d="m56.24,81.96c.06-.07.07-.19,0-.27-.11-.13-.36-.06-.4.1-.05.22.26.32.39.17Z"/>
    <path class="cls-1" d="m55.84,77.43c.16.04.33.07.49.07.05,0,.1,0,.14-.04.06-.05.05-.14.02-.21-.02-.08-.05-.15-.09-.22-.01-.03-.03-.05-.05-.07-.02-.01-.04-.02-.07-.02-.08-.01-.15-.03-.23-.04-.23-.04-.13.13-.16.26-.02.08-.21.23-.05.27Z"/>
    <path class="cls-1" d="m51.74,80.49s.01.08.03.11c.05.09.18.1.28.09.2-.03.4-.11.57-.23.02-.02.04-.03.06-.06.03-.05.02-.11.02-.17,0-.14.07-.28.18-.36.04-.03.1-.06.12-.11.04-.09-.03-.18-.11-.24-.12-.09-.26-.16-.41-.13-.11.02-.21.09-.3.16-.1.07-.19.14-.29.22-.11.08-.19.14-.2.28,0,.15.02.3.04.45Z"/>
    <path class="cls-1" d="m53.99,83c-.02.07,0,.12.02.18.01.04.02.07.03.11.02.07.04.15.06.22.02.07.03.14.04.22,0,.03.01.06.02.09,0,0,0,0,0,0,0,.04.01.07.03.1.02.05.08.07.13.08.07,0,.13-.04.17-.11.03-.05.03-.1.03-.16,0-.09-.02-.19-.03-.28-.01-.08-.03-.16-.05-.24-.02-.1-.04-.24-.12-.3-.05-.05-.12-.07-.19-.05-.07.02-.12.07-.14.14Z"/>
    <path class="cls-1" d="m52.98,77.22s-.03.11,0,.16c.05.08.12.13.2.18.06.04.13.07.19.1.14.06.29.12.44.16.11.03.24-.04.27-.15.03-.12-.04-.23-.15-.27-.17-.05-.34-.11-.5-.18-.1-.04-.2-.08-.3-.08-.06,0-.11.03-.14.08Z"/>
  </g>
  <g>
    <path class="cls-1" d="m55.33,74.86c.04.06.02.2-.22.5.22.14.5.19.76.13.03,0,.07-.02.09-.04.05-.05.04-.14.04-.21.01-.27.36-.47.29-.73-.28,0-.56.05-.83.13-.07.03-.15.07-.16.14,0,.04.02.07.03.09Z"/>
    <path class="cls-1" d="m59.07,71.18c.06-.07.07-.19,0-.27-.11-.13-.36-.06-.4.1-.05.22.26.32.39.17Z"/>
    <path class="cls-1" d="m58.67,66.66c.16.04.33.07.49.07.05,0,.1,0,.14-.04.06-.05.05-.14.02-.21-.02-.08-.05-.15-.09-.22-.01-.03-.03-.05-.05-.07-.02-.01-.04-.02-.07-.02-.08-.01-.15-.03-.23-.04-.23-.04-.13.13-.16.26-.02.08-.21.23-.05.27Z"/>
    <path class="cls-1" d="m54.57,69.72s.01.08.03.11c.05.09.18.1.28.09.2-.03.4-.11.57-.23.02-.02.04-.03.06-.06.03-.05.02-.11.02-.17,0-.14.07-.28.18-.36.04-.03.1-.06.12-.11.04-.09-.03-.18-.11-.24-.12-.09-.26-.16-.41-.13-.11.02-.21.09-.3.16-.1.07-.19.14-.29.22-.11.08-.19.14-.2.28,0,.15.02.3.04.45Z"/>
    <path class="cls-1" d="m56.82,72.23c-.02.07,0,.12.02.18.01.04.02.07.03.11.02.07.04.15.06.22.02.07.03.14.04.22,0,.03.01.06.02.09,0,0,0,0,0,0,0,.04.01.07.03.1.02.05.08.07.13.08.07,0,.13-.04.17-.11.03-.05.03-.1.03-.16,0-.09-.02-.19-.03-.28-.01-.08-.03-.16-.05-.24-.02-.1-.04-.24-.12-.3-.05-.05-.12-.07-.19-.05-.07.02-.12.07-.14.14Z"/>
    <path class="cls-1" d="m55.81,66.44s-.03.11,0,.16c.05.08.12.13.2.18.06.04.13.07.19.1.14.06.29.12.44.16.11.03.24-.04.27-.15.03-.12-.04-.23-.15-.27-.17-.05-.34-.11-.5-.18-.1-.04-.2-.08-.3-.08-.06,0-.11.03-.14.08Z"/>
  </g>
  <g>
    <path class="cls-1" d="m49.62,75.68c.04.06.02.2-.22.5.22.14.5.19.76.13.03,0,.07-.02.09-.04.05-.05.04-.14.04-.21.01-.27.36-.47.29-.73-.28,0-.56.05-.83.13-.07.03-.15.07-.16.14,0,.04.02.07.03.09Z"/>
    <path class="cls-1" d="m53.36,72c.06-.07.07-.19,0-.27-.11-.13-.36-.06-.4.1-.05.22.26.32.39.17Z"/>
    <path class="cls-1" d="m52.96,67.48c.16.04.33.07.49.07.05,0,.1,0,.14-.04.06-.05.05-.14.02-.21-.02-.08-.05-.15-.09-.22-.01-.03-.03-.05-.05-.07-.02-.01-.04-.02-.07-.02-.08-.01-.15-.03-.23-.04-.23-.04-.13.13-.16.26-.02.08-.21.23-.05.27Z"/>
    <path class="cls-1" d="m48.86,70.54s.01.08.03.11c.05.09.18.1.28.09.2-.03.4-.11.57-.23.02-.02.04-.03.06-.06.03-.05.02-.11.02-.17,0-.14.07-.28.18-.36.04-.03.1-.06.12-.11.04-.09-.03-.18-.11-.24-.12-.09-.26-.16-.41-.13-.11.02-.21.09-.3.16-.1.07-.19.14-.29.22-.11.08-.19.14-.2.28,0,.15.02.3.04.45Z"/>
    <path class="cls-1" d="m51.12,73.05c-.02.07,0,.12.02.18.01.04.02.07.03.11.02.07.04.15.06.22.02.07.03.14.04.22,0,.03.01.06.02.09,0,0,0,0,0,0,0,.04.01.07.03.1.02.05.08.07.13.08.07,0,.13-.04.17-.11.03-.05.03-.1.03-.16,0-.09-.02-.19-.03-.28-.01-.08-.03-.16-.05-.24-.02-.1-.04-.24-.12-.3-.05-.05-.12-.07-.19-.05-.07.02-.12.07-.14.14Z"/>
    <path class="cls-1" d="m50.1,67.27s-.03.11,0,.16c.05.08.12.13.2.18.06.04.13.07.19.1.14.06.29.12.44.16.11.03.24-.04.27-.15.03-.12-.04-.23-.15-.27-.17-.05-.34-.11-.5-.18-.1-.04-.2-.08-.3-.08-.06,0-.11.03-.14.08Z"/>
  </g>
  <g>
    <path class="cls-1" d="m48.47,64.73c-.06-.04-.19-.04-.52.16-.11-.24-.13-.52-.04-.77.01-.03.02-.06.05-.08.06-.05.14-.02.22-.01.27.02.51-.3.76-.2-.04.28-.11.55-.23.81-.04.06-.09.14-.16.14-.04,0-.07-.03-.08-.04Z"/>
    <path class="cls-1" d="m52.57,61.45c.08-.05.2-.05.27.02.12.12.02.36-.15.38-.22.02-.29-.29-.12-.4Z"/>
    <path class="cls-1" d="m57.01,62.38c-.02-.16-.03-.33,0-.49,0-.05.02-.1.05-.13.06-.05.14-.03.21,0,.07.03.14.07.21.12.02.02.05.03.06.06.01.02.01.05.01.07,0,.08,0,.15.01.23.01.23-.14.11-.27.13-.08.01-.25.19-.28.02Z"/>
    <path class="cls-1" d="m53.49,66.09s-.08-.02-.11-.04c-.08-.06-.08-.19-.06-.29.05-.2.15-.39.3-.54.02-.02.04-.04.06-.05.05-.02.11,0,.17,0,.14.02.28-.03.38-.14.04-.04.07-.09.12-.11.09-.03.18.05.22.13.08.13.12.28.08.42-.03.11-.11.19-.19.27-.08.09-.17.17-.25.26-.09.1-.17.17-.3.16-.14-.01-.3-.06-.44-.09Z"/>
    <path class="cls-1" d="m51.26,63.55c-.07,0-.12-.01-.18-.04-.03-.02-.07-.03-.1-.05-.07-.03-.14-.06-.21-.08-.07-.02-.14-.05-.21-.07-.03,0-.06-.02-.09-.03,0,0,0,0,0,0-.04,0-.06-.02-.09-.04-.05-.03-.06-.09-.06-.14,0-.07.06-.13.13-.15.05-.02.11-.02.16-.01.09.01.18.04.27.06.08.02.16.05.23.08.09.03.23.07.28.15.04.06.05.13.03.19-.03.06-.09.11-.15.12Z"/>
    <path class="cls-1" d="m56.88,65.25c-.05.02-.11.01-.16-.02-.08-.05-.12-.14-.16-.22-.03-.06-.05-.13-.07-.2-.05-.15-.08-.3-.11-.45-.02-.11.07-.24.19-.25.12-.01.23.06.25.19.03.17.07.35.12.52.03.1.06.21.04.31-.01.06-.04.1-.09.13Z"/>
  </g>
  <g>
    <path class="cls-1" d="m52.07,64.57c.04.06.02.2-.22.5.22.14.5.19.76.13.03,0,.07-.02.09-.04.05-.05.04-.14.04-.21.01-.27.36-.47.29-.73-.28,0-.56.05-.83.13-.07.03-.15.07-.16.14,0,.04.02.07.03.09Z"/>
    <path class="cls-1" d="m55.82,60.89c.06-.07.07-.19,0-.27-.11-.13-.36-.06-.4.1-.05.22.26.32.39.17Z"/>
    <path class="cls-1" d="m55.41,56.37c.16.04.33.07.49.07.05,0,.1,0,.14-.04.06-.05.05-.14.02-.21-.02-.08-.05-.15-.09-.22-.01-.03-.03-.05-.05-.07-.02-.01-.04-.02-.07-.02-.08-.01-.15-.03-.23-.04-.23-.04-.13.13-.16.26-.02.08-.21.23-.05.27Z"/>
    <path class="cls-1" d="m51.32,59.43s.01.08.03.11c.05.09.18.1.28.09.2-.03.4-.11.57-.23.02-.02.04-.03.06-.06.03-.05.02-.11.02-.17,0-.14.07-.28.18-.36.04-.03.1-.06.12-.11.04-.09-.03-.18-.11-.24-.12-.09-.26-.16-.41-.13-.11.02-.21.09-.3.16-.1.07-.19.14-.29.22-.11.08-.19.14-.2.28,0,.15.02.3.04.45Z"/>
    <path class="cls-1" d="m53.57,61.94c-.02.07,0,.12.02.18.01.04.02.07.03.11.02.07.04.15.06.22.02.07.03.14.04.22,0,.03.01.06.02.09,0,0,0,0,0,0,0,.04.01.07.03.1.02.05.08.07.13.08.07,0,.13-.04.17-.11.03-.05.03-.1.03-.16,0-.09-.02-.19-.03-.28-.01-.08-.03-.16-.05-.24-.02-.1-.04-.24-.12-.3-.05-.05-.12-.07-.19-.05-.07.02-.12.07-.14.14Z"/>
    <path class="cls-1" d="m52.55,56.16s-.03.11,0,.16c.05.08.12.13.2.18.06.04.13.07.19.1.14.06.29.12.44.16.11.03.24-.04.27-.15.03-.12-.04-.23-.15-.27-.17-.05-.34-.11-.5-.18-.1-.04-.2-.08-.3-.08-.06,0-.11.03-.14.08Z"/>
  </g>
  <g>
    <path class="cls-1" d="m12.13,75.14c-.03.07-.13.14-.51.15.03.25.17.49.37.65.03.02.05.04.08.04.07,0,.13-.06.18-.1.21-.16.58-.02.73-.24-.18-.21-.39-.39-.62-.54-.06-.03-.15-.07-.2-.03-.03.02-.04.06-.05.08Z"/>
    <path class="cls-1" d="m17.23,75.64c.1,0,.19-.07.21-.16.03-.16-.18-.31-.33-.23-.19.1-.08.39.12.39Z"/>
    <path class="cls-1" d="m20.36,72.51c.07.15.15.28.26.41.03.04.07.07.11.08.07.01.13-.05.17-.11.04-.06.08-.13.11-.21.01-.03.02-.05.02-.08,0-.02-.01-.04-.03-.06-.04-.06-.07-.13-.11-.19-.11-.2-.18-.02-.29.04-.07.03-.3-.02-.24.13Z"/>
    <path class="cls-1" d="m15.51,71.36s-.05.06-.06.09c-.04.1.04.2.11.27.15.14.33.23.53.28.03,0,.05.01.08,0,.06,0,.09-.06.14-.09.1-.09.25-.12.38-.09.05.01.11.04.16.02.09-.02.12-.14.11-.23,0-.14-.05-.29-.16-.39-.08-.07-.19-.1-.3-.12-.11-.03-.23-.05-.34-.08-.12-.03-.23-.05-.33.03-.11.09-.22.21-.31.31Z"/>
    <path class="cls-1" d="m15.04,74.61c-.06.03-.09.07-.12.13-.02.03-.04.06-.06.09-.04.06-.09.12-.13.18-.04.06-.09.11-.14.17-.02.02-.04.05-.06.07,0,0,0,0,0,0-.03.02-.04.05-.06.08-.02.05,0,.11.03.15.04.06.12.07.18.06.05-.01.1-.04.14-.07.07-.06.13-.13.19-.2.05-.06.1-.12.15-.19.06-.08.15-.18.15-.28,0-.07-.02-.13-.08-.17-.05-.04-.13-.05-.19-.02Z"/>
    <path class="cls-1" d="m18.73,70.24c-.05,0-.1.05-.12.1-.03.08-.02.17-.01.26,0,.07.03.14.05.2.04.15.09.29.15.43.04.1.18.16.28.1.11-.05.15-.17.1-.28-.07-.16-.13-.32-.18-.48-.03-.1-.06-.2-.13-.27-.04-.04-.09-.06-.14-.05Z"/>
  </g>
  <g>
    <path class="cls-1" d="m21.97,70.52c-.03.07-.13.14-.51.15.03.25.17.49.37.65.03.02.05.04.08.04.07,0,.13-.06.18-.1.21-.16.58-.02.73-.24-.18-.21-.39-.39-.62-.54-.06-.03-.15-.07-.2-.03-.03.02-.04.06-.05.08Z"/>
    <path class="cls-1" d="m27.06,71.03c.1,0,.19-.07.21-.16.03-.16-.18-.31-.33-.23-.19.1-.08.39.12.39Z"/>
    <path class="cls-1" d="m30.19,67.9c.07.15.15.28.26.41.03.04.07.07.11.08.07.01.13-.05.17-.11.04-.06.08-.13.11-.21.01-.03.02-.05.02-.08,0-.02-.01-.04-.03-.06-.04-.06-.07-.13-.11-.19-.11-.2-.18-.02-.29.04-.07.03-.3-.02-.24.13Z"/>
    <path class="cls-1" d="m25.34,66.74s-.05.06-.06.09c-.04.1.04.2.11.27.15.14.33.23.53.28.03,0,.05.01.08,0,.06,0,.09-.06.14-.09.1-.09.25-.12.38-.09.05.01.11.04.16.02.09-.02.12-.14.11-.23,0-.14-.05-.29-.16-.39-.08-.07-.19-.1-.3-.12-.11-.03-.23-.05-.34-.08-.12-.03-.23-.05-.33.03-.11.09-.22.21-.31.31Z"/>
    <path class="cls-1" d="m24.87,70c-.06.03-.09.07-.12.13-.02.03-.04.06-.06.09-.04.06-.09.12-.13.18-.04.06-.09.11-.14.17-.02.02-.04.05-.06.07,0,0,0,0,0,0-.03.02-.04.05-.06.08-.02.05,0,.11.03.15.04.06.12.07.18.06.05-.01.1-.04.14-.07.07-.06.13-.13.19-.2.05-.06.1-.12.15-.19.06-.08.15-.18.15-.28,0-.07-.02-.13-.08-.17-.05-.04-.13-.05-.19-.02Z"/>
    <path class="cls-1" d="m28.57,65.62c-.05,0-.1.05-.12.1-.03.08-.02.17-.01.26,0,.07.03.14.05.2.04.15.09.29.15.43.04.1.18.16.28.1.11-.05.15-.17.1-.28-.07-.16-.13-.32-.18-.48-.03-.1-.06-.2-.13-.27-.04-.04-.09-.06-.14-.05Z"/>
  </g>
  <g>
    <path class="cls-1" d="m17.79,66.77c-.03.07-.13.14-.51.15.03.25.17.49.37.65.03.02.05.04.08.04.07,0,.13-.06.18-.1.21-.16.58-.02.73-.24-.18-.21-.39-.39-.62-.54-.06-.03-.15-.07-.2-.03-.03.02-.04.06-.05.08Z"/>
    <path class="cls-1" d="m22.88,67.27c.1,0,.19-.07.21-.16.03-.16-.18-.31-.33-.23-.19.1-.08.39.12.39Z"/>
    <path class="cls-1" d="m26.01,64.14c.07.15.15.28.26.41.03.04.07.07.11.08.07.01.13-.05.17-.11.04-.06.08-.13.11-.21.01-.03.02-.05.02-.08,0-.02-.01-.04-.03-.06-.04-.06-.07-.13-.11-.19-.11-.2-.18-.02-.29.04-.07.03-.3-.02-.24.13Z"/>
    <path class="cls-1" d="m21.16,62.99s-.05.06-.06.09c-.04.1.04.2.11.27.15.14.33.23.53.28.03,0,.05.01.08,0,.06,0,.09-.06.14-.09.1-.09.25-.12.38-.09.05.01.11.04.16.02.09-.02.12-.14.11-.23,0-.14-.05-.29-.16-.39-.08-.07-.19-.1-.3-.12-.11-.03-.23-.05-.34-.08-.12-.03-.23-.05-.33.03-.11.09-.22.21-.31.31Z"/>
    <path class="cls-1" d="m20.69,66.24c-.06.03-.09.07-.12.13-.02.03-.04.06-.06.09-.04.06-.09.12-.13.18-.04.06-.09.11-.14.17-.02.02-.04.05-.06.07,0,0,0,0,0,0-.03.02-.04.05-.06.08-.02.05,0,.11.03.15.04.06.12.07.18.06.05-.01.1-.04.14-.07.07-.06.13-.13.19-.2.05-.06.1-.12.15-.19.06-.08.15-.18.15-.28,0-.07-.02-.13-.08-.17-.05-.04-.13-.05-.19-.02Z"/>
    <path class="cls-1" d="m24.38,61.87c-.05,0-.1.05-.12.1-.03.08-.02.17-.01.26,0,.07.03.14.05.2.04.15.09.29.15.43.04.1.18.16.28.1.11-.05.15-.17.1-.28-.07-.16-.13-.32-.18-.48-.03-.1-.06-.2-.13-.27-.04-.04-.09-.06-.14-.05Z"/>
  </g>
  <g>
    <path class="cls-1" d="m25.27,59.06c0-.07-.09-.17-.44-.29.11-.23.31-.42.55-.51.03-.01.06-.02.09-.02.07.01.1.1.15.15.15.21.55.19.63.44-.23.15-.49.26-.75.34-.07.01-.16.02-.2-.03-.02-.03-.02-.07-.02-.09Z"/>
    <path class="cls-1" d="m30.28,60.08c.09.03.16.12.15.22-.02.17-.26.24-.38.13-.15-.15.04-.4.23-.34Z"/>
    <path class="cls-1" d="m32.36,63.99c.11-.12.23-.23.37-.31.04-.03.08-.05.13-.04.07.01.11.09.13.16.02.07.04.15.04.23,0,.03,0,.06,0,.08,0,.02-.03.04-.04.05-.05.05-.11.1-.16.15-.16.15-.17-.04-.27-.12-.06-.05-.3-.07-.19-.19Z"/>
    <path class="cls-1" d="m27.38,63.67s-.03-.07-.03-.11c0-.1.09-.18.18-.22.18-.09.39-.13.59-.11.03,0,.05,0,.08.02.05.03.07.08.1.13.07.12.2.19.34.2.05,0,.11,0,.16.02.08.05.07.17.04.25-.05.13-.13.27-.26.32-.1.04-.21.04-.32.03-.12,0-.23-.02-.35-.02-.13,0-.23-.02-.31-.12-.08-.12-.15-.26-.21-.39Z"/>
    <path class="cls-1" d="m27.89,60.42s-.07-.1-.08-.16c0-.03-.02-.07-.03-.1-.02-.07-.05-.14-.07-.21-.02-.07-.05-.13-.08-.2-.01-.03-.02-.06-.03-.09,0,0,0,0,0,0-.02-.03-.03-.06-.03-.09,0-.05.03-.1.07-.13.06-.04.13-.04.19,0,.05.03.08.07.11.11.05.08.09.16.12.25.03.07.06.15.09.22.03.09.09.22.06.31-.02.07-.06.12-.13.14-.06.02-.14,0-.19-.04Z"/>
    <path class="cls-1" d="m30.13,65.69s-.08-.07-.08-.13c0-.09.03-.17.06-.25.03-.06.07-.12.1-.18.08-.13.17-.25.27-.37.07-.09.22-.1.3-.02.09.08.09.21.02.3-.11.13-.21.27-.31.41-.06.08-.12.18-.21.22-.05.03-.1.03-.15,0Z"/>
  </g>
  <g>
    <path class="cls-1" d="m27.63,61.66c-.03.07-.13.14-.51.15.03.25.17.49.37.65.03.02.05.04.08.04.07,0,.13-.06.18-.1.21-.16.58-.02.73-.24-.18-.21-.39-.39-.62-.54-.06-.03-.15-.07-.2-.03-.03.02-.04.06-.05.08Z"/>
    <path class="cls-1" d="m32.73,62.17c.1,0,.19-.07.21-.16.03-.16-.18-.31-.33-.23-.19.1-.08.39.12.39Z"/>
    <path class="cls-1" d="m35.86,59.04c.07.15.15.28.26.41.03.04.07.07.11.08.07.01.13-.05.17-.11.04-.06.08-.13.11-.21.01-.03.02-.05.02-.08,0-.02-.01-.04-.03-.06-.04-.06-.07-.13-.11-.19-.11-.2-.18-.02-.29.04-.07.03-.3-.02-.24.13Z"/>
    <path class="cls-1" d="m31.01,57.89s-.05.06-.06.09c-.04.1.04.2.11.27.15.14.33.23.53.28.03,0,.05.01.08,0,.06,0,.09-.06.14-.09.1-.09.25-.12.38-.09.05.01.11.04.16.02.09-.02.12-.14.11-.23,0-.14-.05-.29-.16-.39-.08-.07-.19-.1-.3-.12-.11-.03-.23-.05-.34-.08-.12-.03-.23-.05-.33.03-.11.09-.22.21-.31.31Z"/>
    <path class="cls-1" d="m30.54,61.14c-.06.03-.09.07-.12.13-.02.03-.04.06-.06.09-.04.06-.09.12-.13.18-.04.06-.09.11-.14.17-.02.02-.04.05-.06.07,0,0,0,0,0,0-.03.02-.04.05-.06.08-.02.05,0,.11.03.15.04.06.12.07.18.06.05-.01.1-.04.14-.07.07-.06.13-.13.19-.2.05-.06.1-.12.15-.19.06-.08.15-.18.15-.28,0-.07-.02-.13-.08-.17-.05-.04-.13-.05-.19-.02Z"/>
    <path class="cls-1" d="m34.23,56.77c-.05,0-.1.05-.12.1-.03.08-.02.17-.01.26,0,.07.03.14.05.2.04.15.09.29.15.43.04.1.18.16.28.1.11-.05.15-.17.1-.28-.07-.16-.13-.32-.18-.48-.03-.1-.06-.2-.13-.27-.04-.04-.09-.06-.14-.05Z"/>
  </g>
</svg>