<?xml version="1.0" encoding="UTF-8"?>
<svg id="Camada_2" data-name="Camada 2" xmlns="http://www.w3.org/2000/svg" viewBox="0 0 38.53 31.39">
  <defs>
    <style>
      .cls-1 {
        fill: #ffde00;
        stroke-width: 0px;
      }
    </style>
  </defs>
  <g id="Camada_1-2" data-name="Camada 1">
    <path class="cls-1" d="M16.43,28.72c-.35-.29-.64-.64-.81-1.02.63,0,.83.47.81,1.02,1.24,1.03,3.32,1.4,3.91-.07.19-.75,1.13-3.21-.19-3.58,1.86.15,3.08-1.34,3.25-2.93-.09-.29-.11-.64-.04-1.03.07.34.08.69.04,1.03.41,1.39,2.29,1.66,3.54,1.04,1.75-1.05,2.69-3.4,1.91-5.54-.12-.11-.21-.26-.21-.49.08.16.15.32.21.49.29.25.79.21.92.08.58-.86.71-1.84.58-2.83h-.01c0-.38-.57-.57-.19-.94.09.31.16.63.2.94,1.31-.76.93-2.26,1.12-3.39.19.38,1.13,1.13,1.32.38,2.07.94,3.21,4.9,4.71,3.39.84-.69,1.09-1.72,1.02-2.87-4.54-1.7-7.97-5.67-8.92-10.53-.29-.26-.56-.57-.79-.93.19,1.32-1.32,1.51-2.07,1.7-2.07.19-4.71-.38-5.66-2.64,0,1.13-1.32,1.7-2.26,1.89s-1.89.19-2.26-.94c.19,3.21-3.77,3.02-5.84,2.45-1.7-.38-2.45-2.64-3.39-2.83C4.93.4,2.84,3.04.21,3.51-.03,8.37-.06,8.79.09,9.91c.83,6.33,3.99,10.82,5.8,13.33,2.58,3.57,5.46,6.15,8.28,8.15.59-.23,1.15-.56,1.66-1.02.3-.3.6-1.01.62-1.62l-.02-.03Z"/>
  </g>
</svg>